%TF.GenerationSoftware,KiCad,Pcbnew,7.0.5*%
%TF.CreationDate,2023-09-07T09:14:09-04:00*%
%TF.ProjectId,NB1,4e42312e-6b69-4636-9164-5f7063625858,rev?*%
%TF.SameCoordinates,Original*%
%TF.FileFunction,Legend,Bot*%
%TF.FilePolarity,Positive*%
%FSLAX46Y46*%
G04 Gerber Fmt 4.6, Leading zero omitted, Abs format (unit mm)*
G04 Created by KiCad (PCBNEW 7.0.5) date 2023-09-07 09:14:09*
%MOMM*%
%LPD*%
G01*
G04 APERTURE LIST*
%ADD10C,0.100000*%
%ADD11C,0.121920*%
%ADD12C,0.081280*%
%ADD13C,0.152400*%
G04 APERTURE END LIST*
D10*
X147534531Y-108092786D02*
X147534531Y-107092786D01*
X147534531Y-107092786D02*
X147201198Y-107807071D01*
X147201198Y-107807071D02*
X146867865Y-107092786D01*
X146867865Y-107092786D02*
X146867865Y-108092786D01*
X145963103Y-108092786D02*
X145963103Y-107568976D01*
X145963103Y-107568976D02*
X146010722Y-107473738D01*
X146010722Y-107473738D02*
X146105960Y-107426119D01*
X146105960Y-107426119D02*
X146296436Y-107426119D01*
X146296436Y-107426119D02*
X146391674Y-107473738D01*
X145963103Y-108045167D02*
X146058341Y-108092786D01*
X146058341Y-108092786D02*
X146296436Y-108092786D01*
X146296436Y-108092786D02*
X146391674Y-108045167D01*
X146391674Y-108045167D02*
X146439293Y-107949928D01*
X146439293Y-107949928D02*
X146439293Y-107854690D01*
X146439293Y-107854690D02*
X146391674Y-107759452D01*
X146391674Y-107759452D02*
X146296436Y-107711833D01*
X146296436Y-107711833D02*
X146058341Y-107711833D01*
X146058341Y-107711833D02*
X145963103Y-107664214D01*
X145486912Y-108092786D02*
X145486912Y-107092786D01*
X145391674Y-107711833D02*
X145105960Y-108092786D01*
X145105960Y-107426119D02*
X145486912Y-107807071D01*
X144296436Y-108045167D02*
X144391674Y-108092786D01*
X144391674Y-108092786D02*
X144582150Y-108092786D01*
X144582150Y-108092786D02*
X144677388Y-108045167D01*
X144677388Y-108045167D02*
X144725007Y-107949928D01*
X144725007Y-107949928D02*
X144725007Y-107568976D01*
X144725007Y-107568976D02*
X144677388Y-107473738D01*
X144677388Y-107473738D02*
X144582150Y-107426119D01*
X144582150Y-107426119D02*
X144391674Y-107426119D01*
X144391674Y-107426119D02*
X144296436Y-107473738D01*
X144296436Y-107473738D02*
X144248817Y-107568976D01*
X144248817Y-107568976D02*
X144248817Y-107664214D01*
X144248817Y-107664214D02*
X144725007Y-107759452D01*
X143820245Y-108092786D02*
X143820245Y-107092786D01*
X143820245Y-107473738D02*
X143725007Y-107426119D01*
X143725007Y-107426119D02*
X143534531Y-107426119D01*
X143534531Y-107426119D02*
X143439293Y-107473738D01*
X143439293Y-107473738D02*
X143391674Y-107521357D01*
X143391674Y-107521357D02*
X143344055Y-107616595D01*
X143344055Y-107616595D02*
X143344055Y-107902309D01*
X143344055Y-107902309D02*
X143391674Y-107997547D01*
X143391674Y-107997547D02*
X143439293Y-108045167D01*
X143439293Y-108045167D02*
X143534531Y-108092786D01*
X143534531Y-108092786D02*
X143725007Y-108092786D01*
X143725007Y-108092786D02*
X143820245Y-108045167D01*
X142772626Y-108092786D02*
X142867864Y-108045167D01*
X142867864Y-108045167D02*
X142915483Y-107949928D01*
X142915483Y-107949928D02*
X142915483Y-107092786D01*
X142248816Y-108092786D02*
X142344054Y-108045167D01*
X142344054Y-108045167D02*
X142391673Y-107997547D01*
X142391673Y-107997547D02*
X142439292Y-107902309D01*
X142439292Y-107902309D02*
X142439292Y-107616595D01*
X142439292Y-107616595D02*
X142391673Y-107521357D01*
X142391673Y-107521357D02*
X142344054Y-107473738D01*
X142344054Y-107473738D02*
X142248816Y-107426119D01*
X142248816Y-107426119D02*
X142105959Y-107426119D01*
X142105959Y-107426119D02*
X142010721Y-107473738D01*
X142010721Y-107473738D02*
X141963102Y-107521357D01*
X141963102Y-107521357D02*
X141915483Y-107616595D01*
X141915483Y-107616595D02*
X141915483Y-107902309D01*
X141915483Y-107902309D02*
X141963102Y-107997547D01*
X141963102Y-107997547D02*
X142010721Y-108045167D01*
X142010721Y-108045167D02*
X142105959Y-108092786D01*
X142105959Y-108092786D02*
X142248816Y-108092786D01*
X141058340Y-108045167D02*
X141153578Y-108092786D01*
X141153578Y-108092786D02*
X141344054Y-108092786D01*
X141344054Y-108092786D02*
X141439292Y-108045167D01*
X141439292Y-108045167D02*
X141486911Y-107997547D01*
X141486911Y-107997547D02*
X141534530Y-107902309D01*
X141534530Y-107902309D02*
X141534530Y-107616595D01*
X141534530Y-107616595D02*
X141486911Y-107521357D01*
X141486911Y-107521357D02*
X141439292Y-107473738D01*
X141439292Y-107473738D02*
X141344054Y-107426119D01*
X141344054Y-107426119D02*
X141153578Y-107426119D01*
X141153578Y-107426119D02*
X141058340Y-107473738D01*
X140629768Y-108092786D02*
X140629768Y-107092786D01*
X140534530Y-107711833D02*
X140248816Y-108092786D01*
X140248816Y-107426119D02*
X140629768Y-107807071D01*
X138677387Y-108045167D02*
X138772625Y-108092786D01*
X138772625Y-108092786D02*
X138963101Y-108092786D01*
X138963101Y-108092786D02*
X139058339Y-108045167D01*
X139058339Y-108045167D02*
X139105958Y-107949928D01*
X139105958Y-107949928D02*
X139105958Y-107568976D01*
X139105958Y-107568976D02*
X139058339Y-107473738D01*
X139058339Y-107473738D02*
X138963101Y-107426119D01*
X138963101Y-107426119D02*
X138772625Y-107426119D01*
X138772625Y-107426119D02*
X138677387Y-107473738D01*
X138677387Y-107473738D02*
X138629768Y-107568976D01*
X138629768Y-107568976D02*
X138629768Y-107664214D01*
X138629768Y-107664214D02*
X139105958Y-107759452D01*
X138296434Y-108092786D02*
X137772625Y-107426119D01*
X138296434Y-107426119D02*
X137772625Y-108092786D01*
X137391672Y-107426119D02*
X137391672Y-108426119D01*
X137391672Y-107473738D02*
X137296434Y-107426119D01*
X137296434Y-107426119D02*
X137105958Y-107426119D01*
X137105958Y-107426119D02*
X137010720Y-107473738D01*
X137010720Y-107473738D02*
X136963101Y-107521357D01*
X136963101Y-107521357D02*
X136915482Y-107616595D01*
X136915482Y-107616595D02*
X136915482Y-107902309D01*
X136915482Y-107902309D02*
X136963101Y-107997547D01*
X136963101Y-107997547D02*
X137010720Y-108045167D01*
X137010720Y-108045167D02*
X137105958Y-108092786D01*
X137105958Y-108092786D02*
X137296434Y-108092786D01*
X137296434Y-108092786D02*
X137391672Y-108045167D01*
X136058339Y-108092786D02*
X136058339Y-107568976D01*
X136058339Y-107568976D02*
X136105958Y-107473738D01*
X136105958Y-107473738D02*
X136201196Y-107426119D01*
X136201196Y-107426119D02*
X136391672Y-107426119D01*
X136391672Y-107426119D02*
X136486910Y-107473738D01*
X136058339Y-108045167D02*
X136153577Y-108092786D01*
X136153577Y-108092786D02*
X136391672Y-108092786D01*
X136391672Y-108092786D02*
X136486910Y-108045167D01*
X136486910Y-108045167D02*
X136534529Y-107949928D01*
X136534529Y-107949928D02*
X136534529Y-107854690D01*
X136534529Y-107854690D02*
X136486910Y-107759452D01*
X136486910Y-107759452D02*
X136391672Y-107711833D01*
X136391672Y-107711833D02*
X136153577Y-107711833D01*
X136153577Y-107711833D02*
X136058339Y-107664214D01*
X135582148Y-107426119D02*
X135582148Y-108092786D01*
X135582148Y-107521357D02*
X135534529Y-107473738D01*
X135534529Y-107473738D02*
X135439291Y-107426119D01*
X135439291Y-107426119D02*
X135296434Y-107426119D01*
X135296434Y-107426119D02*
X135201196Y-107473738D01*
X135201196Y-107473738D02*
X135153577Y-107568976D01*
X135153577Y-107568976D02*
X135153577Y-108092786D01*
X134725005Y-108045167D02*
X134629767Y-108092786D01*
X134629767Y-108092786D02*
X134439291Y-108092786D01*
X134439291Y-108092786D02*
X134344053Y-108045167D01*
X134344053Y-108045167D02*
X134296434Y-107949928D01*
X134296434Y-107949928D02*
X134296434Y-107902309D01*
X134296434Y-107902309D02*
X134344053Y-107807071D01*
X134344053Y-107807071D02*
X134439291Y-107759452D01*
X134439291Y-107759452D02*
X134582148Y-107759452D01*
X134582148Y-107759452D02*
X134677386Y-107711833D01*
X134677386Y-107711833D02*
X134725005Y-107616595D01*
X134725005Y-107616595D02*
X134725005Y-107568976D01*
X134725005Y-107568976D02*
X134677386Y-107473738D01*
X134677386Y-107473738D02*
X134582148Y-107426119D01*
X134582148Y-107426119D02*
X134439291Y-107426119D01*
X134439291Y-107426119D02*
X134344053Y-107473738D01*
X133867862Y-108092786D02*
X133867862Y-107426119D01*
X133867862Y-107092786D02*
X133915481Y-107140405D01*
X133915481Y-107140405D02*
X133867862Y-107188024D01*
X133867862Y-107188024D02*
X133820243Y-107140405D01*
X133820243Y-107140405D02*
X133867862Y-107092786D01*
X133867862Y-107092786D02*
X133867862Y-107188024D01*
X133248815Y-108092786D02*
X133344053Y-108045167D01*
X133344053Y-108045167D02*
X133391672Y-107997547D01*
X133391672Y-107997547D02*
X133439291Y-107902309D01*
X133439291Y-107902309D02*
X133439291Y-107616595D01*
X133439291Y-107616595D02*
X133391672Y-107521357D01*
X133391672Y-107521357D02*
X133344053Y-107473738D01*
X133344053Y-107473738D02*
X133248815Y-107426119D01*
X133248815Y-107426119D02*
X133105958Y-107426119D01*
X133105958Y-107426119D02*
X133010720Y-107473738D01*
X133010720Y-107473738D02*
X132963101Y-107521357D01*
X132963101Y-107521357D02*
X132915482Y-107616595D01*
X132915482Y-107616595D02*
X132915482Y-107902309D01*
X132915482Y-107902309D02*
X132963101Y-107997547D01*
X132963101Y-107997547D02*
X133010720Y-108045167D01*
X133010720Y-108045167D02*
X133105958Y-108092786D01*
X133105958Y-108092786D02*
X133248815Y-108092786D01*
X132486910Y-107426119D02*
X132486910Y-108092786D01*
X132486910Y-107521357D02*
X132439291Y-107473738D01*
X132439291Y-107473738D02*
X132344053Y-107426119D01*
X132344053Y-107426119D02*
X132201196Y-107426119D01*
X132201196Y-107426119D02*
X132105958Y-107473738D01*
X132105958Y-107473738D02*
X132058339Y-107568976D01*
X132058339Y-107568976D02*
X132058339Y-108092786D01*
X130820243Y-108092786D02*
X130820243Y-107092786D01*
X130820243Y-107473738D02*
X130725005Y-107426119D01*
X130725005Y-107426119D02*
X130534529Y-107426119D01*
X130534529Y-107426119D02*
X130439291Y-107473738D01*
X130439291Y-107473738D02*
X130391672Y-107521357D01*
X130391672Y-107521357D02*
X130344053Y-107616595D01*
X130344053Y-107616595D02*
X130344053Y-107902309D01*
X130344053Y-107902309D02*
X130391672Y-107997547D01*
X130391672Y-107997547D02*
X130439291Y-108045167D01*
X130439291Y-108045167D02*
X130534529Y-108092786D01*
X130534529Y-108092786D02*
X130725005Y-108092786D01*
X130725005Y-108092786D02*
X130820243Y-108045167D01*
X129772624Y-108092786D02*
X129867862Y-108045167D01*
X129867862Y-108045167D02*
X129915481Y-107997547D01*
X129915481Y-107997547D02*
X129963100Y-107902309D01*
X129963100Y-107902309D02*
X129963100Y-107616595D01*
X129963100Y-107616595D02*
X129915481Y-107521357D01*
X129915481Y-107521357D02*
X129867862Y-107473738D01*
X129867862Y-107473738D02*
X129772624Y-107426119D01*
X129772624Y-107426119D02*
X129629767Y-107426119D01*
X129629767Y-107426119D02*
X129534529Y-107473738D01*
X129534529Y-107473738D02*
X129486910Y-107521357D01*
X129486910Y-107521357D02*
X129439291Y-107616595D01*
X129439291Y-107616595D02*
X129439291Y-107902309D01*
X129439291Y-107902309D02*
X129486910Y-107997547D01*
X129486910Y-107997547D02*
X129534529Y-108045167D01*
X129534529Y-108045167D02*
X129629767Y-108092786D01*
X129629767Y-108092786D02*
X129772624Y-108092786D01*
X128582148Y-108092786D02*
X128582148Y-107568976D01*
X128582148Y-107568976D02*
X128629767Y-107473738D01*
X128629767Y-107473738D02*
X128725005Y-107426119D01*
X128725005Y-107426119D02*
X128915481Y-107426119D01*
X128915481Y-107426119D02*
X129010719Y-107473738D01*
X128582148Y-108045167D02*
X128677386Y-108092786D01*
X128677386Y-108092786D02*
X128915481Y-108092786D01*
X128915481Y-108092786D02*
X129010719Y-108045167D01*
X129010719Y-108045167D02*
X129058338Y-107949928D01*
X129058338Y-107949928D02*
X129058338Y-107854690D01*
X129058338Y-107854690D02*
X129010719Y-107759452D01*
X129010719Y-107759452D02*
X128915481Y-107711833D01*
X128915481Y-107711833D02*
X128677386Y-107711833D01*
X128677386Y-107711833D02*
X128582148Y-107664214D01*
X128105957Y-108092786D02*
X128105957Y-107426119D01*
X128105957Y-107616595D02*
X128058338Y-107521357D01*
X128058338Y-107521357D02*
X128010719Y-107473738D01*
X128010719Y-107473738D02*
X127915481Y-107426119D01*
X127915481Y-107426119D02*
X127820243Y-107426119D01*
X127058338Y-108092786D02*
X127058338Y-107092786D01*
X127058338Y-108045167D02*
X127153576Y-108092786D01*
X127153576Y-108092786D02*
X127344052Y-108092786D01*
X127344052Y-108092786D02*
X127439290Y-108045167D01*
X127439290Y-108045167D02*
X127486909Y-107997547D01*
X127486909Y-107997547D02*
X127534528Y-107902309D01*
X127534528Y-107902309D02*
X127534528Y-107616595D01*
X127534528Y-107616595D02*
X127486909Y-107521357D01*
X127486909Y-107521357D02*
X127439290Y-107473738D01*
X127439290Y-107473738D02*
X127344052Y-107426119D01*
X127344052Y-107426119D02*
X127153576Y-107426119D01*
X127153576Y-107426119D02*
X127058338Y-107473738D01*
D11*
X140175413Y-111215042D02*
X140175413Y-110320962D01*
X140175413Y-110320962D02*
X139664510Y-111215042D01*
X139664510Y-111215042D02*
X139664510Y-110320962D01*
X139238758Y-111215042D02*
X139238758Y-110618988D01*
X139238758Y-110320962D02*
X139281334Y-110363537D01*
X139281334Y-110363537D02*
X139238758Y-110406112D01*
X139238758Y-110406112D02*
X139196183Y-110363537D01*
X139196183Y-110363537D02*
X139238758Y-110320962D01*
X139238758Y-110320962D02*
X139238758Y-110406112D01*
X138429829Y-111172467D02*
X138514980Y-111215042D01*
X138514980Y-111215042D02*
X138685281Y-111215042D01*
X138685281Y-111215042D02*
X138770431Y-111172467D01*
X138770431Y-111172467D02*
X138813006Y-111129891D01*
X138813006Y-111129891D02*
X138855582Y-111044741D01*
X138855582Y-111044741D02*
X138855582Y-110789289D01*
X138855582Y-110789289D02*
X138813006Y-110704139D01*
X138813006Y-110704139D02*
X138770431Y-110661564D01*
X138770431Y-110661564D02*
X138685281Y-110618988D01*
X138685281Y-110618988D02*
X138514980Y-110618988D01*
X138514980Y-110618988D02*
X138429829Y-110661564D01*
X138046652Y-111215042D02*
X138046652Y-110320962D01*
X137961502Y-110874440D02*
X137706050Y-111215042D01*
X137706050Y-110618988D02*
X138046652Y-110959590D01*
X136854546Y-111215042D02*
X137365449Y-111215042D01*
X137109997Y-111215042D02*
X137109997Y-110320962D01*
X137109997Y-110320962D02*
X137195148Y-110448687D01*
X137195148Y-110448687D02*
X137280298Y-110533838D01*
X137280298Y-110533838D02*
X137365449Y-110576413D01*
X136471368Y-111129891D02*
X136428793Y-111172467D01*
X136428793Y-111172467D02*
X136471368Y-111215042D01*
X136471368Y-111215042D02*
X136513944Y-111172467D01*
X136513944Y-111172467D02*
X136471368Y-111129891D01*
X136471368Y-111129891D02*
X136471368Y-111215042D01*
X135577289Y-111215042D02*
X136088192Y-111215042D01*
X135832740Y-111215042D02*
X135832740Y-110320962D01*
X135832740Y-110320962D02*
X135917891Y-110448687D01*
X135917891Y-110448687D02*
X136003041Y-110533838D01*
X136003041Y-110533838D02*
X136088192Y-110576413D01*
D12*
X174233948Y-101328981D02*
X174545522Y-100883876D01*
X174768074Y-101328981D02*
X174768074Y-100394261D01*
X174768074Y-100394261D02*
X174411990Y-100394261D01*
X174411990Y-100394261D02*
X174322969Y-100438771D01*
X174322969Y-100438771D02*
X174278459Y-100483282D01*
X174278459Y-100483282D02*
X174233948Y-100572303D01*
X174233948Y-100572303D02*
X174233948Y-100705834D01*
X174233948Y-100705834D02*
X174278459Y-100794855D01*
X174278459Y-100794855D02*
X174322969Y-100839366D01*
X174322969Y-100839366D02*
X174411990Y-100883876D01*
X174411990Y-100883876D02*
X174768074Y-100883876D01*
X173388249Y-101328981D02*
X173833354Y-101328981D01*
X173833354Y-101328981D02*
X173833354Y-100394261D01*
X172720592Y-101284471D02*
X172809613Y-101328981D01*
X172809613Y-101328981D02*
X172987655Y-101328981D01*
X172987655Y-101328981D02*
X173076676Y-101284471D01*
X173076676Y-101284471D02*
X173121187Y-101195450D01*
X173121187Y-101195450D02*
X173121187Y-100839366D01*
X173121187Y-100839366D02*
X173076676Y-100750345D01*
X173076676Y-100750345D02*
X172987655Y-100705834D01*
X172987655Y-100705834D02*
X172809613Y-100705834D01*
X172809613Y-100705834D02*
X172720592Y-100750345D01*
X172720592Y-100750345D02*
X172676082Y-100839366D01*
X172676082Y-100839366D02*
X172676082Y-100928387D01*
X172676082Y-100928387D02*
X173121187Y-101017408D01*
X171874893Y-101328981D02*
X171874893Y-100394261D01*
X171874893Y-101284471D02*
X171963914Y-101328981D01*
X171963914Y-101328981D02*
X172141956Y-101328981D01*
X172141956Y-101328981D02*
X172230977Y-101284471D01*
X172230977Y-101284471D02*
X172275487Y-101239960D01*
X172275487Y-101239960D02*
X172319998Y-101150939D01*
X172319998Y-101150939D02*
X172319998Y-100883876D01*
X172319998Y-100883876D02*
X172275487Y-100794855D01*
X172275487Y-100794855D02*
X172230977Y-100750345D01*
X172230977Y-100750345D02*
X172141956Y-100705834D01*
X172141956Y-100705834D02*
X171963914Y-100705834D01*
X171963914Y-100705834D02*
X171874893Y-100750345D01*
X171429788Y-100839366D02*
X170717621Y-100839366D01*
X170717621Y-101106429D02*
X171429788Y-101106429D01*
X169293285Y-101685065D02*
X169337796Y-101640554D01*
X169337796Y-101640554D02*
X169426817Y-101507023D01*
X169426817Y-101507023D02*
X169471327Y-101418002D01*
X169471327Y-101418002D02*
X169515838Y-101284471D01*
X169515838Y-101284471D02*
X169560348Y-101061918D01*
X169560348Y-101061918D02*
X169560348Y-100883876D01*
X169560348Y-100883876D02*
X169515838Y-100661324D01*
X169515838Y-100661324D02*
X169471327Y-100527792D01*
X169471327Y-100527792D02*
X169426817Y-100438771D01*
X169426817Y-100438771D02*
X169337796Y-100305240D01*
X169337796Y-100305240D02*
X169293285Y-100260730D01*
X168358565Y-100394261D02*
X168046991Y-101328981D01*
X168046991Y-101328981D02*
X167735418Y-100394261D01*
X167023250Y-101284471D02*
X167112271Y-101328981D01*
X167112271Y-101328981D02*
X167290313Y-101328981D01*
X167290313Y-101328981D02*
X167379334Y-101284471D01*
X167379334Y-101284471D02*
X167423844Y-101239960D01*
X167423844Y-101239960D02*
X167468355Y-101150939D01*
X167468355Y-101150939D02*
X167468355Y-100883876D01*
X167468355Y-100883876D02*
X167423844Y-100794855D01*
X167423844Y-100794855D02*
X167379334Y-100750345D01*
X167379334Y-100750345D02*
X167290313Y-100705834D01*
X167290313Y-100705834D02*
X167112271Y-100705834D01*
X167112271Y-100705834D02*
X167023250Y-100750345D01*
X166222061Y-101284471D02*
X166311082Y-101328981D01*
X166311082Y-101328981D02*
X166489124Y-101328981D01*
X166489124Y-101328981D02*
X166578145Y-101284471D01*
X166578145Y-101284471D02*
X166622655Y-101239960D01*
X166622655Y-101239960D02*
X166667166Y-101150939D01*
X166667166Y-101150939D02*
X166667166Y-100883876D01*
X166667166Y-100883876D02*
X166622655Y-100794855D01*
X166622655Y-100794855D02*
X166578145Y-100750345D01*
X166578145Y-100750345D02*
X166489124Y-100705834D01*
X166489124Y-100705834D02*
X166311082Y-100705834D01*
X166311082Y-100705834D02*
X166222061Y-100750345D01*
X165109298Y-100972897D02*
X164397131Y-100972897D01*
X162794753Y-101328981D02*
X163239858Y-101328981D01*
X163239858Y-101328981D02*
X163239858Y-100394261D01*
X162127096Y-101284471D02*
X162216117Y-101328981D01*
X162216117Y-101328981D02*
X162394159Y-101328981D01*
X162394159Y-101328981D02*
X162483180Y-101284471D01*
X162483180Y-101284471D02*
X162527691Y-101195450D01*
X162527691Y-101195450D02*
X162527691Y-100839366D01*
X162527691Y-100839366D02*
X162483180Y-100750345D01*
X162483180Y-100750345D02*
X162394159Y-100705834D01*
X162394159Y-100705834D02*
X162216117Y-100705834D01*
X162216117Y-100705834D02*
X162127096Y-100750345D01*
X162127096Y-100750345D02*
X162082586Y-100839366D01*
X162082586Y-100839366D02*
X162082586Y-100928387D01*
X162082586Y-100928387D02*
X162527691Y-101017408D01*
X161281397Y-101328981D02*
X161281397Y-100394261D01*
X161281397Y-101284471D02*
X161370418Y-101328981D01*
X161370418Y-101328981D02*
X161548460Y-101328981D01*
X161548460Y-101328981D02*
X161637481Y-101284471D01*
X161637481Y-101284471D02*
X161681991Y-101239960D01*
X161681991Y-101239960D02*
X161726502Y-101150939D01*
X161726502Y-101150939D02*
X161726502Y-100883876D01*
X161726502Y-100883876D02*
X161681991Y-100794855D01*
X161681991Y-100794855D02*
X161637481Y-100750345D01*
X161637481Y-100750345D02*
X161548460Y-100705834D01*
X161548460Y-100705834D02*
X161370418Y-100705834D01*
X161370418Y-100705834D02*
X161281397Y-100750345D01*
X159812551Y-100839366D02*
X160124124Y-100839366D01*
X160124124Y-101328981D02*
X160124124Y-100394261D01*
X160124124Y-100394261D02*
X159679019Y-100394261D01*
X159189404Y-101328981D02*
X159278425Y-101284471D01*
X159278425Y-101284471D02*
X159322935Y-101239960D01*
X159322935Y-101239960D02*
X159367446Y-101150939D01*
X159367446Y-101150939D02*
X159367446Y-100883876D01*
X159367446Y-100883876D02*
X159322935Y-100794855D01*
X159322935Y-100794855D02*
X159278425Y-100750345D01*
X159278425Y-100750345D02*
X159189404Y-100705834D01*
X159189404Y-100705834D02*
X159055872Y-100705834D01*
X159055872Y-100705834D02*
X158966851Y-100750345D01*
X158966851Y-100750345D02*
X158922341Y-100794855D01*
X158922341Y-100794855D02*
X158877830Y-100883876D01*
X158877830Y-100883876D02*
X158877830Y-101150939D01*
X158877830Y-101150939D02*
X158922341Y-101239960D01*
X158922341Y-101239960D02*
X158966851Y-101284471D01*
X158966851Y-101284471D02*
X159055872Y-101328981D01*
X159055872Y-101328981D02*
X159189404Y-101328981D01*
X158566257Y-100705834D02*
X158388215Y-101328981D01*
X158388215Y-101328981D02*
X158210173Y-100883876D01*
X158210173Y-100883876D02*
X158032131Y-101328981D01*
X158032131Y-101328981D02*
X157854089Y-100705834D01*
X157097412Y-101328981D02*
X157097412Y-100839366D01*
X157097412Y-100839366D02*
X157141922Y-100750345D01*
X157141922Y-100750345D02*
X157230943Y-100705834D01*
X157230943Y-100705834D02*
X157408985Y-100705834D01*
X157408985Y-100705834D02*
X157498006Y-100750345D01*
X157097412Y-101284471D02*
X157186433Y-101328981D01*
X157186433Y-101328981D02*
X157408985Y-101328981D01*
X157408985Y-101328981D02*
X157498006Y-101284471D01*
X157498006Y-101284471D02*
X157542517Y-101195450D01*
X157542517Y-101195450D02*
X157542517Y-101106429D01*
X157542517Y-101106429D02*
X157498006Y-101017408D01*
X157498006Y-101017408D02*
X157408985Y-100972897D01*
X157408985Y-100972897D02*
X157186433Y-100972897D01*
X157186433Y-100972897D02*
X157097412Y-100928387D01*
X156652307Y-101328981D02*
X156652307Y-100705834D01*
X156652307Y-100883876D02*
X156607797Y-100794855D01*
X156607797Y-100794855D02*
X156563286Y-100750345D01*
X156563286Y-100750345D02*
X156474265Y-100705834D01*
X156474265Y-100705834D02*
X156385244Y-100705834D01*
X155673077Y-101328981D02*
X155673077Y-100394261D01*
X155673077Y-101284471D02*
X155762098Y-101328981D01*
X155762098Y-101328981D02*
X155940140Y-101328981D01*
X155940140Y-101328981D02*
X156029161Y-101284471D01*
X156029161Y-101284471D02*
X156073671Y-101239960D01*
X156073671Y-101239960D02*
X156118182Y-101150939D01*
X156118182Y-101150939D02*
X156118182Y-100883876D01*
X156118182Y-100883876D02*
X156073671Y-100794855D01*
X156073671Y-100794855D02*
X156029161Y-100750345D01*
X156029161Y-100750345D02*
X155940140Y-100705834D01*
X155940140Y-100705834D02*
X155762098Y-100705834D01*
X155762098Y-100705834D02*
X155673077Y-100750345D01*
X154649336Y-100394261D02*
X154337762Y-101328981D01*
X154337762Y-101328981D02*
X154026189Y-100394261D01*
X153581084Y-101328981D02*
X153670105Y-101284471D01*
X153670105Y-101284471D02*
X153714615Y-101239960D01*
X153714615Y-101239960D02*
X153759126Y-101150939D01*
X153759126Y-101150939D02*
X153759126Y-100883876D01*
X153759126Y-100883876D02*
X153714615Y-100794855D01*
X153714615Y-100794855D02*
X153670105Y-100750345D01*
X153670105Y-100750345D02*
X153581084Y-100705834D01*
X153581084Y-100705834D02*
X153447552Y-100705834D01*
X153447552Y-100705834D02*
X153358531Y-100750345D01*
X153358531Y-100750345D02*
X153314021Y-100794855D01*
X153314021Y-100794855D02*
X153269510Y-100883876D01*
X153269510Y-100883876D02*
X153269510Y-101150939D01*
X153269510Y-101150939D02*
X153314021Y-101239960D01*
X153314021Y-101239960D02*
X153358531Y-101284471D01*
X153358531Y-101284471D02*
X153447552Y-101328981D01*
X153447552Y-101328981D02*
X153581084Y-101328981D01*
X152735385Y-101328981D02*
X152824406Y-101284471D01*
X152824406Y-101284471D02*
X152868916Y-101195450D01*
X152868916Y-101195450D02*
X152868916Y-100394261D01*
X152512833Y-100705834D02*
X152156749Y-100705834D01*
X152379301Y-100394261D02*
X152379301Y-101195450D01*
X152379301Y-101195450D02*
X152334791Y-101284471D01*
X152334791Y-101284471D02*
X152245770Y-101328981D01*
X152245770Y-101328981D02*
X152156749Y-101328981D01*
X151444581Y-101328981D02*
X151444581Y-100839366D01*
X151444581Y-100839366D02*
X151489091Y-100750345D01*
X151489091Y-100750345D02*
X151578112Y-100705834D01*
X151578112Y-100705834D02*
X151756154Y-100705834D01*
X151756154Y-100705834D02*
X151845175Y-100750345D01*
X151444581Y-101284471D02*
X151533602Y-101328981D01*
X151533602Y-101328981D02*
X151756154Y-101328981D01*
X151756154Y-101328981D02*
X151845175Y-101284471D01*
X151845175Y-101284471D02*
X151889686Y-101195450D01*
X151889686Y-101195450D02*
X151889686Y-101106429D01*
X151889686Y-101106429D02*
X151845175Y-101017408D01*
X151845175Y-101017408D02*
X151756154Y-100972897D01*
X151756154Y-100972897D02*
X151533602Y-100972897D01*
X151533602Y-100972897D02*
X151444581Y-100928387D01*
X150598882Y-100705834D02*
X150598882Y-101462512D01*
X150598882Y-101462512D02*
X150643392Y-101551533D01*
X150643392Y-101551533D02*
X150687903Y-101596044D01*
X150687903Y-101596044D02*
X150776924Y-101640554D01*
X150776924Y-101640554D02*
X150910455Y-101640554D01*
X150910455Y-101640554D02*
X150999476Y-101596044D01*
X150598882Y-101284471D02*
X150687903Y-101328981D01*
X150687903Y-101328981D02*
X150865945Y-101328981D01*
X150865945Y-101328981D02*
X150954966Y-101284471D01*
X150954966Y-101284471D02*
X150999476Y-101239960D01*
X150999476Y-101239960D02*
X151043987Y-101150939D01*
X151043987Y-101150939D02*
X151043987Y-100883876D01*
X151043987Y-100883876D02*
X150999476Y-100794855D01*
X150999476Y-100794855D02*
X150954966Y-100750345D01*
X150954966Y-100750345D02*
X150865945Y-100705834D01*
X150865945Y-100705834D02*
X150687903Y-100705834D01*
X150687903Y-100705834D02*
X150598882Y-100750345D01*
X149797693Y-101284471D02*
X149886714Y-101328981D01*
X149886714Y-101328981D02*
X150064756Y-101328981D01*
X150064756Y-101328981D02*
X150153777Y-101284471D01*
X150153777Y-101284471D02*
X150198288Y-101195450D01*
X150198288Y-101195450D02*
X150198288Y-100839366D01*
X150198288Y-100839366D02*
X150153777Y-100750345D01*
X150153777Y-100750345D02*
X150064756Y-100705834D01*
X150064756Y-100705834D02*
X149886714Y-100705834D01*
X149886714Y-100705834D02*
X149797693Y-100750345D01*
X149797693Y-100750345D02*
X149753183Y-100839366D01*
X149753183Y-100839366D02*
X149753183Y-100928387D01*
X149753183Y-100928387D02*
X150198288Y-101017408D01*
X148729441Y-101685065D02*
X148684931Y-101640554D01*
X148684931Y-101640554D02*
X148595910Y-101507023D01*
X148595910Y-101507023D02*
X148551399Y-101418002D01*
X148551399Y-101418002D02*
X148506889Y-101284471D01*
X148506889Y-101284471D02*
X148462378Y-101061918D01*
X148462378Y-101061918D02*
X148462378Y-100883876D01*
X148462378Y-100883876D02*
X148506889Y-100661324D01*
X148506889Y-100661324D02*
X148551399Y-100527792D01*
X148551399Y-100527792D02*
X148595910Y-100438771D01*
X148595910Y-100438771D02*
X148684931Y-100305240D01*
X148684931Y-100305240D02*
X148729441Y-100260730D01*
X146637448Y-100349751D02*
X147438637Y-101551533D01*
X145168602Y-101328981D02*
X145613707Y-101328981D01*
X145613707Y-101328981D02*
X145613707Y-100394261D01*
X144500945Y-101284471D02*
X144589966Y-101328981D01*
X144589966Y-101328981D02*
X144768008Y-101328981D01*
X144768008Y-101328981D02*
X144857029Y-101284471D01*
X144857029Y-101284471D02*
X144901540Y-101195450D01*
X144901540Y-101195450D02*
X144901540Y-100839366D01*
X144901540Y-100839366D02*
X144857029Y-100750345D01*
X144857029Y-100750345D02*
X144768008Y-100705834D01*
X144768008Y-100705834D02*
X144589966Y-100705834D01*
X144589966Y-100705834D02*
X144500945Y-100750345D01*
X144500945Y-100750345D02*
X144456435Y-100839366D01*
X144456435Y-100839366D02*
X144456435Y-100928387D01*
X144456435Y-100928387D02*
X144901540Y-101017408D01*
X143655246Y-101328981D02*
X143655246Y-100394261D01*
X143655246Y-101284471D02*
X143744267Y-101328981D01*
X143744267Y-101328981D02*
X143922309Y-101328981D01*
X143922309Y-101328981D02*
X144011330Y-101284471D01*
X144011330Y-101284471D02*
X144055840Y-101239960D01*
X144055840Y-101239960D02*
X144100351Y-101150939D01*
X144100351Y-101150939D02*
X144100351Y-100883876D01*
X144100351Y-100883876D02*
X144055840Y-100794855D01*
X144055840Y-100794855D02*
X144011330Y-100750345D01*
X144011330Y-100750345D02*
X143922309Y-100705834D01*
X143922309Y-100705834D02*
X143744267Y-100705834D01*
X143744267Y-100705834D02*
X143655246Y-100750345D01*
X142542484Y-101061918D02*
X142097379Y-101061918D01*
X142631505Y-101328981D02*
X142319931Y-100394261D01*
X142319931Y-100394261D02*
X142008358Y-101328981D01*
X141696784Y-101328981D02*
X141696784Y-100705834D01*
X141696784Y-100794855D02*
X141652274Y-100750345D01*
X141652274Y-100750345D02*
X141563253Y-100705834D01*
X141563253Y-100705834D02*
X141429721Y-100705834D01*
X141429721Y-100705834D02*
X141340700Y-100750345D01*
X141340700Y-100750345D02*
X141296190Y-100839366D01*
X141296190Y-100839366D02*
X141296190Y-101328981D01*
X141296190Y-100839366D02*
X141251679Y-100750345D01*
X141251679Y-100750345D02*
X141162658Y-100705834D01*
X141162658Y-100705834D02*
X141029127Y-100705834D01*
X141029127Y-100705834D02*
X140940106Y-100750345D01*
X140940106Y-100750345D02*
X140895596Y-100839366D01*
X140895596Y-100839366D02*
X140895596Y-101328981D01*
X140450491Y-100705834D02*
X140450491Y-101640554D01*
X140450491Y-100750345D02*
X140361470Y-100705834D01*
X140361470Y-100705834D02*
X140183428Y-100705834D01*
X140183428Y-100705834D02*
X140094407Y-100750345D01*
X140094407Y-100750345D02*
X140049897Y-100794855D01*
X140049897Y-100794855D02*
X140005386Y-100883876D01*
X140005386Y-100883876D02*
X140005386Y-101150939D01*
X140005386Y-101150939D02*
X140049897Y-101239960D01*
X140049897Y-101239960D02*
X140094407Y-101284471D01*
X140094407Y-101284471D02*
X140183428Y-101328981D01*
X140183428Y-101328981D02*
X140361470Y-101328981D01*
X140361470Y-101328981D02*
X140450491Y-101284471D01*
D13*
X125107675Y-103012140D02*
X125214113Y-102958921D01*
X125214113Y-102958921D02*
X125320551Y-102852483D01*
X125320551Y-102852483D02*
X125480208Y-102692825D01*
X125480208Y-102692825D02*
X125586646Y-102639606D01*
X125586646Y-102639606D02*
X125693084Y-102639606D01*
X125639865Y-102905702D02*
X125746303Y-102852483D01*
X125746303Y-102852483D02*
X125852741Y-102746044D01*
X125852741Y-102746044D02*
X125905960Y-102533168D01*
X125905960Y-102533168D02*
X125905960Y-102160635D01*
X125905960Y-102160635D02*
X125852741Y-101947759D01*
X125852741Y-101947759D02*
X125746303Y-101841321D01*
X125746303Y-101841321D02*
X125639865Y-101788102D01*
X125639865Y-101788102D02*
X125426989Y-101788102D01*
X125426989Y-101788102D02*
X125320551Y-101841321D01*
X125320551Y-101841321D02*
X125214113Y-101947759D01*
X125214113Y-101947759D02*
X125160894Y-102160635D01*
X125160894Y-102160635D02*
X125160894Y-102533168D01*
X125160894Y-102533168D02*
X125214113Y-102746044D01*
X125214113Y-102746044D02*
X125320551Y-102852483D01*
X125320551Y-102852483D02*
X125426989Y-102905702D01*
X125426989Y-102905702D02*
X125639865Y-102905702D01*
X124202951Y-102852483D02*
X124309389Y-102905702D01*
X124309389Y-102905702D02*
X124522265Y-102905702D01*
X124522265Y-102905702D02*
X124628703Y-102852483D01*
X124628703Y-102852483D02*
X124681922Y-102799263D01*
X124681922Y-102799263D02*
X124735141Y-102692825D01*
X124735141Y-102692825D02*
X124735141Y-102373511D01*
X124735141Y-102373511D02*
X124681922Y-102267073D01*
X124681922Y-102267073D02*
X124628703Y-102213854D01*
X124628703Y-102213854D02*
X124522265Y-102160635D01*
X124522265Y-102160635D02*
X124309389Y-102160635D01*
X124309389Y-102160635D02*
X124202951Y-102213854D01*
X123351446Y-102320292D02*
X123191789Y-102373511D01*
X123191789Y-102373511D02*
X123138570Y-102426730D01*
X123138570Y-102426730D02*
X123085351Y-102533168D01*
X123085351Y-102533168D02*
X123085351Y-102692825D01*
X123085351Y-102692825D02*
X123138570Y-102799263D01*
X123138570Y-102799263D02*
X123191789Y-102852483D01*
X123191789Y-102852483D02*
X123298227Y-102905702D01*
X123298227Y-102905702D02*
X123723979Y-102905702D01*
X123723979Y-102905702D02*
X123723979Y-101788102D01*
X123723979Y-101788102D02*
X123351446Y-101788102D01*
X123351446Y-101788102D02*
X123245008Y-101841321D01*
X123245008Y-101841321D02*
X123191789Y-101894540D01*
X123191789Y-101894540D02*
X123138570Y-102000978D01*
X123138570Y-102000978D02*
X123138570Y-102107416D01*
X123138570Y-102107416D02*
X123191789Y-102213854D01*
X123191789Y-102213854D02*
X123245008Y-102267073D01*
X123245008Y-102267073D02*
X123351446Y-102320292D01*
X123351446Y-102320292D02*
X123723979Y-102320292D01*
X122446722Y-102905702D02*
X122553160Y-102852483D01*
X122553160Y-102852483D02*
X122606379Y-102799263D01*
X122606379Y-102799263D02*
X122659598Y-102692825D01*
X122659598Y-102692825D02*
X122659598Y-102373511D01*
X122659598Y-102373511D02*
X122606379Y-102267073D01*
X122606379Y-102267073D02*
X122553160Y-102213854D01*
X122553160Y-102213854D02*
X122446722Y-102160635D01*
X122446722Y-102160635D02*
X122287065Y-102160635D01*
X122287065Y-102160635D02*
X122180627Y-102213854D01*
X122180627Y-102213854D02*
X122127408Y-102267073D01*
X122127408Y-102267073D02*
X122074189Y-102373511D01*
X122074189Y-102373511D02*
X122074189Y-102692825D01*
X122074189Y-102692825D02*
X122127408Y-102799263D01*
X122127408Y-102799263D02*
X122180627Y-102852483D01*
X122180627Y-102852483D02*
X122287065Y-102905702D01*
X122287065Y-102905702D02*
X122446722Y-102905702D01*
X121701655Y-102905702D02*
X121116246Y-102160635D01*
X121701655Y-102160635D02*
X121116246Y-102905702D01*
X120690493Y-102799263D02*
X120637274Y-102852483D01*
X120637274Y-102852483D02*
X120690493Y-102905702D01*
X120690493Y-102905702D02*
X120743712Y-102852483D01*
X120743712Y-102852483D02*
X120690493Y-102799263D01*
X120690493Y-102799263D02*
X120690493Y-102905702D01*
X119519675Y-102799263D02*
X119572894Y-102852483D01*
X119572894Y-102852483D02*
X119732551Y-102905702D01*
X119732551Y-102905702D02*
X119838989Y-102905702D01*
X119838989Y-102905702D02*
X119998646Y-102852483D01*
X119998646Y-102852483D02*
X120105084Y-102746044D01*
X120105084Y-102746044D02*
X120158303Y-102639606D01*
X120158303Y-102639606D02*
X120211522Y-102426730D01*
X120211522Y-102426730D02*
X120211522Y-102267073D01*
X120211522Y-102267073D02*
X120158303Y-102054197D01*
X120158303Y-102054197D02*
X120105084Y-101947759D01*
X120105084Y-101947759D02*
X119998646Y-101841321D01*
X119998646Y-101841321D02*
X119838989Y-101788102D01*
X119838989Y-101788102D02*
X119732551Y-101788102D01*
X119732551Y-101788102D02*
X119572894Y-101841321D01*
X119572894Y-101841321D02*
X119519675Y-101894540D01*
X118561732Y-102905702D02*
X118561732Y-102320292D01*
X118561732Y-102320292D02*
X118614951Y-102213854D01*
X118614951Y-102213854D02*
X118721389Y-102160635D01*
X118721389Y-102160635D02*
X118934265Y-102160635D01*
X118934265Y-102160635D02*
X119040703Y-102213854D01*
X118561732Y-102852483D02*
X118668170Y-102905702D01*
X118668170Y-102905702D02*
X118934265Y-102905702D01*
X118934265Y-102905702D02*
X119040703Y-102852483D01*
X119040703Y-102852483D02*
X119093922Y-102746044D01*
X119093922Y-102746044D02*
X119093922Y-102639606D01*
X119093922Y-102639606D02*
X119040703Y-102533168D01*
X119040703Y-102533168D02*
X118934265Y-102479949D01*
X118934265Y-102479949D02*
X118668170Y-102479949D01*
X118668170Y-102479949D02*
X118561732Y-102426730D01*
M02*
