%TF.GenerationSoftware,KiCad,Pcbnew,7.0.5*%
%TF.CreationDate,2023-09-07T09:14:09-04:00*%
%TF.ProjectId,NB1,4e42312e-6b69-4636-9164-5f7063625858,rev?*%
%TF.SameCoordinates,Original*%
%TF.FileFunction,Copper,L1,Top*%
%TF.FilePolarity,Positive*%
%FSLAX46Y46*%
G04 Gerber Fmt 4.6, Leading zero omitted, Abs format (unit mm)*
G04 Created by KiCad (PCBNEW 7.0.5) date 2023-09-07 09:14:09*
%MOMM*%
%LPD*%
G01*
G04 APERTURE LIST*
G04 Aperture macros list*
%AMOutline5P*
0 Free polygon, 5 corners , with rotation*
0 The origin of the aperture is its center*
0 number of corners: always 5*
0 $1 to $10 corner X, Y*
0 $11 Rotation angle, in degrees counterclockwise*
0 create outline with 5 corners*
4,1,5,$1,$2,$3,$4,$5,$6,$7,$8,$9,$10,$1,$2,$11*%
%AMOutline6P*
0 Free polygon, 6 corners , with rotation*
0 The origin of the aperture is its center*
0 number of corners: always 6*
0 $1 to $12 corner X, Y*
0 $13 Rotation angle, in degrees counterclockwise*
0 create outline with 6 corners*
4,1,6,$1,$2,$3,$4,$5,$6,$7,$8,$9,$10,$11,$12,$1,$2,$13*%
%AMOutline7P*
0 Free polygon, 7 corners , with rotation*
0 The origin of the aperture is its center*
0 number of corners: always 7*
0 $1 to $14 corner X, Y*
0 $15 Rotation angle, in degrees counterclockwise*
0 create outline with 7 corners*
4,1,7,$1,$2,$3,$4,$5,$6,$7,$8,$9,$10,$11,$12,$13,$14,$1,$2,$15*%
%AMOutline8P*
0 Free polygon, 8 corners , with rotation*
0 The origin of the aperture is its center*
0 number of corners: always 8*
0 $1 to $16 corner X, Y*
0 $17 Rotation angle, in degrees counterclockwise*
0 create outline with 8 corners*
4,1,8,$1,$2,$3,$4,$5,$6,$7,$8,$9,$10,$11,$12,$13,$14,$15,$16,$1,$2,$17*%
G04 Aperture macros list end*
%TA.AperFunction,ComponentPad*%
%ADD10Outline8P,-0.675000X0.279594X-0.279594X0.675000X0.279594X0.675000X0.675000X0.279594X0.675000X-0.279594X0.279594X-0.675000X-0.279594X-0.675000X-0.675000X-0.279594X0.000000*%
%TD*%
%TA.AperFunction,ComponentPad*%
%ADD11C,1.200000*%
%TD*%
%TA.AperFunction,ComponentPad*%
%ADD12O,3.000000X1.500000*%
%TD*%
%TA.AperFunction,ViaPad*%
%ADD13C,0.604000*%
%TD*%
%TA.AperFunction,Conductor*%
%ADD14C,0.304800*%
%TD*%
%TA.AperFunction,Conductor*%
%ADD15C,0.152400*%
%TD*%
%TA.AperFunction,Conductor*%
%ADD16C,0.609600*%
%TD*%
G04 APERTURE END LIST*
D10*
%TO.P,U$3,P1*%
%TO.N,GND*%
X137452100Y-98653600D03*
%TO.P,U$3,P2*%
%TO.N,VCC*%
X139992100Y-98653600D03*
%TO.P,U$3,P3*%
%TO.N,SCL*%
X142532100Y-98653600D03*
%TO.P,U$3,P4*%
%TO.N,SDA*%
X145072100Y-98653600D03*
%TD*%
%TO.P,U$4,P1*%
%TO.N,GND*%
X153962100Y-98653600D03*
%TO.P,U$4,P2*%
%TO.N,VCC*%
X156502100Y-98653600D03*
%TO.P,U$4,P3*%
%TO.N,SCL*%
X159042100Y-98653600D03*
%TO.P,U$4,P4*%
%TO.N,SDA*%
X161582100Y-98653600D03*
%TD*%
D11*
%TO.P,U$12,A*%
%TO.N,N$1*%
X173520100Y-104241600D03*
%TO.P,U$12,K*%
%TO.N,GND*%
X176060100Y-104241600D03*
%TD*%
D10*
%TO.P,U$2,P1*%
%TO.N,GND*%
X120942100Y-98653600D03*
%TO.P,U$2,P2*%
%TO.N,VCC*%
X123482100Y-98653600D03*
%TO.P,U$2,P3*%
%TO.N,SCL*%
X126022100Y-98653600D03*
%TO.P,U$2,P4*%
%TO.N,SDA*%
X128562100Y-98653600D03*
%TD*%
%TO.P,U$5,P1*%
%TO.N,GND*%
X171488100Y-98653600D03*
%TO.P,U$5,P2*%
%TO.N,VCC*%
X174028100Y-98653600D03*
%TO.P,U$5,P3*%
%TO.N,IO1*%
X176568100Y-98653600D03*
%TD*%
%TO.P,U$7,P1*%
%TO.N,SCL*%
X129324100Y-105130600D03*
%TO.P,U$7,P2*%
%TO.N,SDA*%
X131864100Y-105130600D03*
%TO.P,U$7,P3*%
%TO.N,PWR_A*%
X134404100Y-105130600D03*
%TO.P,U$7,P4*%
%TO.N,PWR_B*%
X136944100Y-105130600D03*
%TO.P,U$7,P5*%
%TO.N,IO1*%
X139484100Y-105130600D03*
%TO.P,U$7,P6*%
%TO.N,IO2*%
X142024100Y-105130600D03*
%TD*%
%TO.P,U$8,P1*%
%TO.N,PWR_B*%
X157010100Y-107543600D03*
%TO.P,U$8,P2*%
%TO.N,PWR*%
X159550100Y-107543600D03*
%TO.P,U$8,P3*%
%TO.N,PWR_A*%
X162090100Y-107543600D03*
%TD*%
D12*
%TO.P,U$10,P1*%
%TO.N,SCL*%
X142850100Y-113131600D03*
%TO.P,U$10,P2*%
%TO.N,VCC*%
X150850100Y-113131600D03*
%TD*%
%TO.P,U$11,P1*%
%TO.N,SDA*%
X142850100Y-109829600D03*
%TO.P,U$11,P2*%
%TO.N,VCC*%
X150850100Y-109829600D03*
%TD*%
D10*
%TO.P,U$9,P1*%
%TO.N,PWR_A*%
X157010100Y-110591600D03*
%TO.P,U$9,P2*%
%TO.N,GND*%
X159550100Y-110591600D03*
%TO.P,U$9,P3*%
%TO.N,PWR_B*%
X162090100Y-110591600D03*
%TD*%
D12*
%TO.P,U$13,P1*%
%TO.N,N$1*%
X154406100Y-102463600D03*
%TO.P,U$13,P2*%
%TO.N,VCC*%
X146406100Y-102463600D03*
%TD*%
D10*
%TO.P,U$6,P1*%
%TO.N,GND*%
X171488100Y-110845600D03*
%TO.P,U$6,P2*%
%TO.N,VCC*%
X174028100Y-110845600D03*
%TO.P,U$6,P3*%
%TO.N,IO2*%
X176568100Y-110845600D03*
%TD*%
D12*
%TO.P,U$1,P1*%
%TO.N,PWR*%
X160122100Y-102971600D03*
%TO.P,U$1,P2*%
%TO.N,VCC*%
X168122100Y-102971600D03*
%TD*%
D13*
%TO.N,VCC*%
X140601700Y-100764600D03*
%TD*%
D14*
%TO.N,GND*%
X176060100Y-104241600D02*
X176060100Y-101701600D01*
X177355500Y-96139000D02*
X172402500Y-96139000D01*
X178346100Y-97129600D02*
X177355500Y-96139000D01*
X176060100Y-101701600D02*
X178346100Y-99415600D01*
X178346100Y-99415600D02*
X178346100Y-97129600D01*
X171488100Y-97053400D02*
X171488100Y-98653600D01*
X172402500Y-96139000D02*
X171488100Y-97053400D01*
%TO.N,VCC*%
X150850100Y-109829600D02*
X150850100Y-113131600D01*
X139992100Y-98653600D02*
X139992100Y-100155000D01*
X140601700Y-100764600D02*
X139992100Y-100155000D01*
D15*
%TO.N,SCL*%
X126758700Y-96647000D02*
X128841500Y-96647000D01*
X129324100Y-105130600D02*
X126022100Y-101078147D01*
X135928100Y-113131600D02*
X142850100Y-113131600D01*
X135928100Y-113131600D02*
X129324100Y-106527600D01*
X129324100Y-105130600D02*
X129324100Y-106527600D01*
X142532100Y-96647000D02*
X158305500Y-96647000D01*
X159042100Y-97383600D02*
X158305500Y-96647000D01*
X142532100Y-96647000D02*
X142532100Y-98653600D01*
X126022100Y-98653600D02*
X126022100Y-97383600D01*
X137172700Y-96647000D02*
X142532100Y-96647000D01*
X159042100Y-97383600D02*
X159042100Y-98653600D01*
X126022100Y-101078147D02*
X126022100Y-98653600D01*
X128841500Y-96647000D02*
X130848100Y-98653600D01*
X126022100Y-97383600D02*
X126758700Y-96647000D01*
X135166100Y-98653600D02*
X137172700Y-96647000D01*
X130848100Y-98653600D02*
X135166100Y-98653600D01*
%TO.N,SDA*%
X146596100Y-97129600D02*
X157264100Y-97129600D01*
X131864100Y-105130600D02*
X131864100Y-101320600D01*
X135674100Y-109829600D02*
X131864100Y-106019600D01*
X131864100Y-105130600D02*
X131864100Y-106019600D01*
X130086100Y-100177600D02*
X128562100Y-98653600D01*
X142405100Y-101320600D02*
X145072100Y-98653600D01*
X157772100Y-99415600D02*
X158534100Y-100177600D01*
X160058100Y-100177600D02*
X161582100Y-98653600D01*
X131356100Y-101320600D02*
X131864100Y-101320600D01*
X131864100Y-101320600D02*
X142405100Y-101320600D01*
X158534100Y-100177600D02*
X160058100Y-100177600D01*
X145072100Y-98653600D02*
X146596100Y-97129600D01*
X157772100Y-97637600D02*
X157772100Y-99415600D01*
X157264100Y-97129600D02*
X157772100Y-97637600D01*
X130086100Y-100177600D02*
X131356100Y-100177600D01*
X142850100Y-109829600D02*
X135674100Y-109829600D01*
X131356100Y-101320600D02*
X131356100Y-100177600D01*
%TO.N,IO2*%
X142024100Y-105130600D02*
X142024100Y-102717600D01*
X175044100Y-109321600D02*
X176568100Y-110845600D01*
X143802100Y-100939600D02*
X142024100Y-102717600D01*
X172758103Y-100939600D02*
X175044100Y-103225597D01*
X143802100Y-100939600D02*
X172758103Y-100939600D01*
X175044100Y-103225597D02*
X175044100Y-109321600D01*
%TO.N,IO1*%
X139484100Y-105130600D02*
X139484100Y-104749600D01*
X176568100Y-99999800D02*
X175933100Y-100634800D01*
X143598900Y-100634800D02*
X175933100Y-100634800D01*
X176568100Y-99999800D02*
X176568100Y-98653600D01*
X143598900Y-100634800D02*
X139484100Y-104749600D01*
D16*
%TO.N,PWR_A*%
X163614100Y-111201200D02*
X163614100Y-108305600D01*
X137071100Y-107924600D02*
X154343100Y-107924600D01*
X134404100Y-105130600D02*
X134404100Y-105257600D01*
X163614100Y-108305600D02*
X162852100Y-107543600D01*
X157543500Y-111887000D02*
X157010100Y-111353600D01*
X157010100Y-110591600D02*
X154343100Y-107924600D01*
X162852100Y-107543600D02*
X162090100Y-107543600D01*
X137071100Y-107924600D02*
X134404100Y-105257600D01*
X157010100Y-110591600D02*
X157010100Y-111353600D01*
X162928300Y-111887000D02*
X163614100Y-111201200D01*
X157543500Y-111887000D02*
X162928300Y-111887000D01*
%TO.N,PWR_B*%
X158534100Y-109067600D02*
X157010100Y-107543600D01*
X136944100Y-105130600D02*
X138722100Y-106908600D01*
X160566100Y-109067600D02*
X158534100Y-109067600D01*
X157010100Y-107543600D02*
X156375100Y-106908600D01*
X156375100Y-106908600D02*
X138722100Y-106908600D01*
X162090100Y-110591600D02*
X160566100Y-109067600D01*
D14*
%TO.N,N$1*%
X155422100Y-104241600D02*
X154406100Y-103225600D01*
X173520100Y-104241600D02*
X155422100Y-104241600D01*
X154406100Y-102463600D02*
X154406100Y-103225600D01*
%TD*%
M02*
