%TF.GenerationSoftware,KiCad,Pcbnew,7.0.5*%
%TF.CreationDate,2023-09-07T09:14:09-04:00*%
%TF.ProjectId,NB1,4e42312e-6b69-4636-9164-5f7063625858,rev?*%
%TF.SameCoordinates,Original*%
%TF.FileFunction,Legend,Top*%
%TF.FilePolarity,Positive*%
%FSLAX46Y46*%
G04 Gerber Fmt 4.6, Leading zero omitted, Abs format (unit mm)*
G04 Created by KiCad (PCBNEW 7.0.5) date 2023-09-07 09:14:09*
%MOMM*%
%LPD*%
G01*
G04 APERTURE LIST*
%ADD10C,0.152400*%
%ADD11C,0.100000*%
%ADD12C,0.081280*%
%ADD13C,0.065024*%
%ADD14C,0.121920*%
%ADD15C,0.048768*%
%ADD16C,0.097536*%
%ADD17C,0.127000*%
G04 APERTURE END LIST*
D10*
X126911100Y-108686600D02*
X144437100Y-108686600D01*
X163614100Y-104241600D02*
X163614100Y-102971600D01*
D11*
X156178044Y-105828312D02*
X155668105Y-105828311D01*
D10*
X161836100Y-102971600D02*
X163614100Y-102971600D01*
X163614100Y-102971600D02*
X163614100Y-101701600D01*
X126911100Y-108686600D02*
X126911100Y-102971600D01*
D11*
X162861570Y-105884406D02*
X162861570Y-105591248D01*
X163190109Y-105469941D02*
X162861570Y-105884406D01*
D10*
X164884100Y-102971600D02*
X163614100Y-104241600D01*
D11*
X156178044Y-105828312D02*
X156178043Y-105212791D01*
D10*
X164884100Y-102971600D02*
X166408100Y-102971600D01*
X163614100Y-101701600D02*
X164884100Y-102971600D01*
D11*
X164403178Y-105469941D02*
X163190109Y-105469941D01*
D10*
X144437100Y-108686600D02*
X144437100Y-102971600D01*
X165011100Y-101777800D02*
X165011100Y-104063800D01*
D11*
X155273928Y-104924197D02*
X156178044Y-105828312D01*
X162861570Y-105884406D02*
X163109238Y-105884406D01*
D10*
X126911100Y-102971600D02*
X144437100Y-102971600D01*
X163614100Y-102971600D02*
X164884100Y-102971600D01*
D12*
X145120251Y-101328981D02*
X144808677Y-100883876D01*
X144586125Y-101328981D02*
X144586125Y-100394261D01*
X144586125Y-100394261D02*
X144942209Y-100394261D01*
X144942209Y-100394261D02*
X145031230Y-100438771D01*
X145031230Y-100438771D02*
X145075740Y-100483282D01*
X145075740Y-100483282D02*
X145120251Y-100572303D01*
X145120251Y-100572303D02*
X145120251Y-100705834D01*
X145120251Y-100705834D02*
X145075740Y-100794855D01*
X145075740Y-100794855D02*
X145031230Y-100839366D01*
X145031230Y-100839366D02*
X144942209Y-100883876D01*
X144942209Y-100883876D02*
X144586125Y-100883876D01*
X145965950Y-101328981D02*
X145520845Y-101328981D01*
X145520845Y-101328981D02*
X145520845Y-100394261D01*
X146633607Y-101284471D02*
X146544586Y-101328981D01*
X146544586Y-101328981D02*
X146366544Y-101328981D01*
X146366544Y-101328981D02*
X146277523Y-101284471D01*
X146277523Y-101284471D02*
X146233012Y-101195450D01*
X146233012Y-101195450D02*
X146233012Y-100839366D01*
X146233012Y-100839366D02*
X146277523Y-100750345D01*
X146277523Y-100750345D02*
X146366544Y-100705834D01*
X146366544Y-100705834D02*
X146544586Y-100705834D01*
X146544586Y-100705834D02*
X146633607Y-100750345D01*
X146633607Y-100750345D02*
X146678117Y-100839366D01*
X146678117Y-100839366D02*
X146678117Y-100928387D01*
X146678117Y-100928387D02*
X146233012Y-101017408D01*
X147479306Y-101328981D02*
X147479306Y-100394261D01*
X147479306Y-101284471D02*
X147390285Y-101328981D01*
X147390285Y-101328981D02*
X147212243Y-101328981D01*
X147212243Y-101328981D02*
X147123222Y-101284471D01*
X147123222Y-101284471D02*
X147078712Y-101239960D01*
X147078712Y-101239960D02*
X147034201Y-101150939D01*
X147034201Y-101150939D02*
X147034201Y-100883876D01*
X147034201Y-100883876D02*
X147078712Y-100794855D01*
X147078712Y-100794855D02*
X147123222Y-100750345D01*
X147123222Y-100750345D02*
X147212243Y-100705834D01*
X147212243Y-100705834D02*
X147390285Y-100705834D01*
X147390285Y-100705834D02*
X147479306Y-100750345D01*
X147924411Y-100839366D02*
X148636579Y-100839366D01*
X148636579Y-101106429D02*
X147924411Y-101106429D01*
X149348746Y-101685065D02*
X149304235Y-101640554D01*
X149304235Y-101640554D02*
X149215214Y-101507023D01*
X149215214Y-101507023D02*
X149170704Y-101418002D01*
X149170704Y-101418002D02*
X149126193Y-101284471D01*
X149126193Y-101284471D02*
X149081683Y-101061918D01*
X149081683Y-101061918D02*
X149081683Y-100883876D01*
X149081683Y-100883876D02*
X149126193Y-100661324D01*
X149126193Y-100661324D02*
X149170704Y-100527792D01*
X149170704Y-100527792D02*
X149215214Y-100438771D01*
X149215214Y-100438771D02*
X149304235Y-100305240D01*
X149304235Y-100305240D02*
X149348746Y-100260730D01*
X149571298Y-100394261D02*
X149882872Y-101328981D01*
X149882872Y-101328981D02*
X150194445Y-100394261D01*
X150906613Y-101284471D02*
X150817592Y-101328981D01*
X150817592Y-101328981D02*
X150639550Y-101328981D01*
X150639550Y-101328981D02*
X150550529Y-101284471D01*
X150550529Y-101284471D02*
X150506019Y-101239960D01*
X150506019Y-101239960D02*
X150461508Y-101150939D01*
X150461508Y-101150939D02*
X150461508Y-100883876D01*
X150461508Y-100883876D02*
X150506019Y-100794855D01*
X150506019Y-100794855D02*
X150550529Y-100750345D01*
X150550529Y-100750345D02*
X150639550Y-100705834D01*
X150639550Y-100705834D02*
X150817592Y-100705834D01*
X150817592Y-100705834D02*
X150906613Y-100750345D01*
X151707802Y-101284471D02*
X151618781Y-101328981D01*
X151618781Y-101328981D02*
X151440739Y-101328981D01*
X151440739Y-101328981D02*
X151351718Y-101284471D01*
X151351718Y-101284471D02*
X151307208Y-101239960D01*
X151307208Y-101239960D02*
X151262697Y-101150939D01*
X151262697Y-101150939D02*
X151262697Y-100883876D01*
X151262697Y-100883876D02*
X151307208Y-100794855D01*
X151307208Y-100794855D02*
X151351718Y-100750345D01*
X151351718Y-100750345D02*
X151440739Y-100705834D01*
X151440739Y-100705834D02*
X151618781Y-100705834D01*
X151618781Y-100705834D02*
X151707802Y-100750345D01*
X152108397Y-100972897D02*
X152820565Y-100972897D01*
X153176648Y-100705834D02*
X153399200Y-101328981D01*
X153399200Y-101328981D02*
X153621753Y-100705834D01*
X154422942Y-101328981D02*
X153977837Y-101328981D01*
X153977837Y-101328981D02*
X153977837Y-100394261D01*
X155090599Y-101284471D02*
X155001578Y-101328981D01*
X155001578Y-101328981D02*
X154823536Y-101328981D01*
X154823536Y-101328981D02*
X154734515Y-101284471D01*
X154734515Y-101284471D02*
X154690004Y-101195450D01*
X154690004Y-101195450D02*
X154690004Y-100839366D01*
X154690004Y-100839366D02*
X154734515Y-100750345D01*
X154734515Y-100750345D02*
X154823536Y-100705834D01*
X154823536Y-100705834D02*
X155001578Y-100705834D01*
X155001578Y-100705834D02*
X155090599Y-100750345D01*
X155090599Y-100750345D02*
X155135109Y-100839366D01*
X155135109Y-100839366D02*
X155135109Y-100928387D01*
X155135109Y-100928387D02*
X154690004Y-101017408D01*
X155936298Y-101328981D02*
X155936298Y-100394261D01*
X155936298Y-101284471D02*
X155847277Y-101328981D01*
X155847277Y-101328981D02*
X155669235Y-101328981D01*
X155669235Y-101328981D02*
X155580214Y-101284471D01*
X155580214Y-101284471D02*
X155535704Y-101239960D01*
X155535704Y-101239960D02*
X155491193Y-101150939D01*
X155491193Y-101150939D02*
X155491193Y-100883876D01*
X155491193Y-100883876D02*
X155535704Y-100794855D01*
X155535704Y-100794855D02*
X155580214Y-100750345D01*
X155580214Y-100750345D02*
X155669235Y-100705834D01*
X155669235Y-100705834D02*
X155847277Y-100705834D01*
X155847277Y-100705834D02*
X155936298Y-100750345D01*
X156292382Y-101685065D02*
X156336892Y-101640554D01*
X156336892Y-101640554D02*
X156425913Y-101507023D01*
X156425913Y-101507023D02*
X156470424Y-101418002D01*
X156470424Y-101418002D02*
X156514934Y-101284471D01*
X156514934Y-101284471D02*
X156559445Y-101061918D01*
X156559445Y-101061918D02*
X156559445Y-100883876D01*
X156559445Y-100883876D02*
X156514934Y-100661324D01*
X156514934Y-100661324D02*
X156470424Y-100527792D01*
X156470424Y-100527792D02*
X156425913Y-100438771D01*
X156425913Y-100438771D02*
X156336892Y-100305240D01*
X156336892Y-100305240D02*
X156292382Y-100260730D01*
X158384375Y-100349751D02*
X157583186Y-101551533D01*
X159408116Y-101328981D02*
X159408116Y-100705834D01*
X159408116Y-100394261D02*
X159363605Y-100438771D01*
X159363605Y-100438771D02*
X159408116Y-100483282D01*
X159408116Y-100483282D02*
X159452626Y-100438771D01*
X159452626Y-100438771D02*
X159408116Y-100394261D01*
X159408116Y-100394261D02*
X159408116Y-100483282D01*
X160298326Y-101328981D02*
X159853221Y-101328981D01*
X159853221Y-101328981D02*
X159853221Y-100394261D01*
X160965983Y-101284471D02*
X160876962Y-101328981D01*
X160876962Y-101328981D02*
X160698920Y-101328981D01*
X160698920Y-101328981D02*
X160609899Y-101284471D01*
X160609899Y-101284471D02*
X160565388Y-101195450D01*
X160565388Y-101195450D02*
X160565388Y-100839366D01*
X160565388Y-100839366D02*
X160609899Y-100750345D01*
X160609899Y-100750345D02*
X160698920Y-100705834D01*
X160698920Y-100705834D02*
X160876962Y-100705834D01*
X160876962Y-100705834D02*
X160965983Y-100750345D01*
X160965983Y-100750345D02*
X161010493Y-100839366D01*
X161010493Y-100839366D02*
X161010493Y-100928387D01*
X161010493Y-100928387D02*
X160565388Y-101017408D01*
X161811682Y-101328981D02*
X161811682Y-100394261D01*
X161811682Y-101284471D02*
X161722661Y-101328981D01*
X161722661Y-101328981D02*
X161544619Y-101328981D01*
X161544619Y-101328981D02*
X161455598Y-101284471D01*
X161455598Y-101284471D02*
X161411088Y-101239960D01*
X161411088Y-101239960D02*
X161366577Y-101150939D01*
X161366577Y-101150939D02*
X161366577Y-100883876D01*
X161366577Y-100883876D02*
X161411088Y-100794855D01*
X161411088Y-100794855D02*
X161455598Y-100750345D01*
X161455598Y-100750345D02*
X161544619Y-100705834D01*
X161544619Y-100705834D02*
X161722661Y-100705834D01*
X161722661Y-100705834D02*
X161811682Y-100750345D01*
D13*
X176026919Y-97542705D02*
X176026919Y-96794929D01*
X176525437Y-96794929D02*
X176667870Y-96794929D01*
X176667870Y-96794929D02*
X176739087Y-96830537D01*
X176739087Y-96830537D02*
X176810304Y-96901754D01*
X176810304Y-96901754D02*
X176845912Y-97044188D01*
X176845912Y-97044188D02*
X176845912Y-97293446D01*
X176845912Y-97293446D02*
X176810304Y-97435880D01*
X176810304Y-97435880D02*
X176739087Y-97507097D01*
X176739087Y-97507097D02*
X176667870Y-97542705D01*
X176667870Y-97542705D02*
X176525437Y-97542705D01*
X176525437Y-97542705D02*
X176454220Y-97507097D01*
X176454220Y-97507097D02*
X176383003Y-97435880D01*
X176383003Y-97435880D02*
X176347395Y-97293446D01*
X176347395Y-97293446D02*
X176347395Y-97044188D01*
X176347395Y-97044188D02*
X176383003Y-96901754D01*
X176383003Y-96901754D02*
X176454220Y-96830537D01*
X176454220Y-96830537D02*
X176525437Y-96794929D01*
X177558080Y-97542705D02*
X177130779Y-97542705D01*
X177344429Y-97542705D02*
X177344429Y-96794929D01*
X177344429Y-96794929D02*
X177273213Y-96901754D01*
X177273213Y-96901754D02*
X177201996Y-96972971D01*
X177201996Y-96972971D02*
X177130779Y-97008579D01*
D14*
X136017986Y-111237842D02*
X136017986Y-110343762D01*
X136017986Y-110343762D02*
X136528889Y-111237842D01*
X136528889Y-111237842D02*
X136528889Y-110343762D01*
X136954641Y-111237842D02*
X136954641Y-110641788D01*
X136954641Y-110343762D02*
X136912065Y-110386337D01*
X136912065Y-110386337D02*
X136954641Y-110428912D01*
X136954641Y-110428912D02*
X136997216Y-110386337D01*
X136997216Y-110386337D02*
X136954641Y-110343762D01*
X136954641Y-110343762D02*
X136954641Y-110428912D01*
X137763570Y-111195267D02*
X137678419Y-111237842D01*
X137678419Y-111237842D02*
X137508118Y-111237842D01*
X137508118Y-111237842D02*
X137422968Y-111195267D01*
X137422968Y-111195267D02*
X137380393Y-111152691D01*
X137380393Y-111152691D02*
X137337817Y-111067541D01*
X137337817Y-111067541D02*
X137337817Y-110812089D01*
X137337817Y-110812089D02*
X137380393Y-110726939D01*
X137380393Y-110726939D02*
X137422968Y-110684364D01*
X137422968Y-110684364D02*
X137508118Y-110641788D01*
X137508118Y-110641788D02*
X137678419Y-110641788D01*
X137678419Y-110641788D02*
X137763570Y-110684364D01*
X138146747Y-111237842D02*
X138146747Y-110343762D01*
X138231897Y-110897240D02*
X138487349Y-111237842D01*
X138487349Y-110641788D02*
X138146747Y-110982390D01*
X139338853Y-111237842D02*
X138827950Y-111237842D01*
X139083402Y-111237842D02*
X139083402Y-110343762D01*
X139083402Y-110343762D02*
X138998251Y-110471487D01*
X138998251Y-110471487D02*
X138913101Y-110556638D01*
X138913101Y-110556638D02*
X138827950Y-110599213D01*
X139722031Y-111152691D02*
X139764606Y-111195267D01*
X139764606Y-111195267D02*
X139722031Y-111237842D01*
X139722031Y-111237842D02*
X139679455Y-111195267D01*
X139679455Y-111195267D02*
X139722031Y-111152691D01*
X139722031Y-111152691D02*
X139722031Y-111237842D01*
X140616110Y-111237842D02*
X140105207Y-111237842D01*
X140360659Y-111237842D02*
X140360659Y-110343762D01*
X140360659Y-110343762D02*
X140275508Y-110471487D01*
X140275508Y-110471487D02*
X140190358Y-110556638D01*
X140190358Y-110556638D02*
X140105207Y-110599213D01*
D13*
X160802111Y-97253097D02*
X160908936Y-97288705D01*
X160908936Y-97288705D02*
X161086978Y-97288705D01*
X161086978Y-97288705D02*
X161158195Y-97253097D01*
X161158195Y-97253097D02*
X161193803Y-97217488D01*
X161193803Y-97217488D02*
X161229412Y-97146271D01*
X161229412Y-97146271D02*
X161229412Y-97075055D01*
X161229412Y-97075055D02*
X161193803Y-97003838D01*
X161193803Y-97003838D02*
X161158195Y-96968229D01*
X161158195Y-96968229D02*
X161086978Y-96932621D01*
X161086978Y-96932621D02*
X160944545Y-96897013D01*
X160944545Y-96897013D02*
X160873328Y-96861404D01*
X160873328Y-96861404D02*
X160837719Y-96825796D01*
X160837719Y-96825796D02*
X160802111Y-96754579D01*
X160802111Y-96754579D02*
X160802111Y-96683362D01*
X160802111Y-96683362D02*
X160837719Y-96612146D01*
X160837719Y-96612146D02*
X160873328Y-96576537D01*
X160873328Y-96576537D02*
X160944545Y-96540929D01*
X160944545Y-96540929D02*
X161122586Y-96540929D01*
X161122586Y-96540929D02*
X161229412Y-96576537D01*
X161549887Y-97288705D02*
X161549887Y-96540929D01*
X161549887Y-96540929D02*
X161727929Y-96540929D01*
X161727929Y-96540929D02*
X161834754Y-96576537D01*
X161834754Y-96576537D02*
X161905971Y-96647754D01*
X161905971Y-96647754D02*
X161941580Y-96718971D01*
X161941580Y-96718971D02*
X161977188Y-96861404D01*
X161977188Y-96861404D02*
X161977188Y-96968229D01*
X161977188Y-96968229D02*
X161941580Y-97110663D01*
X161941580Y-97110663D02*
X161905971Y-97181880D01*
X161905971Y-97181880D02*
X161834754Y-97253097D01*
X161834754Y-97253097D02*
X161727929Y-97288705D01*
X161727929Y-97288705D02*
X161549887Y-97288705D01*
X162262055Y-97075055D02*
X162618139Y-97075055D01*
X162190838Y-97288705D02*
X162440097Y-96540929D01*
X162440097Y-96540929D02*
X162689356Y-97288705D01*
D14*
X165289913Y-107402035D02*
X164779010Y-107402035D01*
X165034462Y-107402035D02*
X165034462Y-106507955D01*
X165034462Y-106507955D02*
X164949311Y-106635680D01*
X164949311Y-106635680D02*
X164864161Y-106720831D01*
X164864161Y-106720831D02*
X164779010Y-106763406D01*
X164779010Y-108032574D02*
X164821586Y-107989999D01*
X164821586Y-107989999D02*
X164906736Y-107947424D01*
X164906736Y-107947424D02*
X165119612Y-107947424D01*
X165119612Y-107947424D02*
X165204763Y-107989999D01*
X165204763Y-107989999D02*
X165247338Y-108032574D01*
X165247338Y-108032574D02*
X165289913Y-108117725D01*
X165289913Y-108117725D02*
X165289913Y-108202875D01*
X165289913Y-108202875D02*
X165247338Y-108330601D01*
X165247338Y-108330601D02*
X164736435Y-108841504D01*
X164736435Y-108841504D02*
X165289913Y-108841504D01*
X164736435Y-109386893D02*
X165289913Y-109386893D01*
X165289913Y-109386893D02*
X164991887Y-109727495D01*
X164991887Y-109727495D02*
X165119612Y-109727495D01*
X165119612Y-109727495D02*
X165204763Y-109770070D01*
X165204763Y-109770070D02*
X165247338Y-109812645D01*
X165247338Y-109812645D02*
X165289913Y-109897796D01*
X165289913Y-109897796D02*
X165289913Y-110110672D01*
X165289913Y-110110672D02*
X165247338Y-110195822D01*
X165247338Y-110195822D02*
X165204763Y-110238398D01*
X165204763Y-110238398D02*
X165119612Y-110280973D01*
X165119612Y-110280973D02*
X164864161Y-110280973D01*
X164864161Y-110280973D02*
X164779010Y-110238398D01*
X164779010Y-110238398D02*
X164736435Y-110195822D01*
X165204763Y-111124388D02*
X165204763Y-111720442D01*
X164991887Y-110783787D02*
X164779010Y-111422415D01*
X164779010Y-111422415D02*
X165332489Y-111422415D01*
D15*
X136717684Y-101413289D02*
X136397209Y-101413289D01*
X136557446Y-101413289D02*
X136557446Y-100852457D01*
X136557446Y-100852457D02*
X136504034Y-100932576D01*
X136504034Y-100932576D02*
X136450621Y-100985988D01*
X136450621Y-100985988D02*
X136397209Y-101012695D01*
X136931335Y-100905869D02*
X136958041Y-100879163D01*
X136958041Y-100879163D02*
X137011454Y-100852457D01*
X137011454Y-100852457D02*
X137144985Y-100852457D01*
X137144985Y-100852457D02*
X137198398Y-100879163D01*
X137198398Y-100879163D02*
X137225104Y-100905869D01*
X137225104Y-100905869D02*
X137251810Y-100959282D01*
X137251810Y-100959282D02*
X137251810Y-101012695D01*
X137251810Y-101012695D02*
X137225104Y-101092813D01*
X137225104Y-101092813D02*
X136904628Y-101413289D01*
X136904628Y-101413289D02*
X137251810Y-101413289D01*
X137438754Y-100852457D02*
X137785936Y-100852457D01*
X137785936Y-100852457D02*
X137598992Y-101066107D01*
X137598992Y-101066107D02*
X137679111Y-101066107D01*
X137679111Y-101066107D02*
X137732524Y-101092813D01*
X137732524Y-101092813D02*
X137759230Y-101119520D01*
X137759230Y-101119520D02*
X137785936Y-101172932D01*
X137785936Y-101172932D02*
X137785936Y-101306464D01*
X137785936Y-101306464D02*
X137759230Y-101359876D01*
X137759230Y-101359876D02*
X137732524Y-101386583D01*
X137732524Y-101386583D02*
X137679111Y-101413289D01*
X137679111Y-101413289D02*
X137518873Y-101413289D01*
X137518873Y-101413289D02*
X137465461Y-101386583D01*
X137465461Y-101386583D02*
X137438754Y-101359876D01*
X138266650Y-101039401D02*
X138266650Y-101413289D01*
X138133118Y-100825751D02*
X137999587Y-101226345D01*
X137999587Y-101226345D02*
X138346768Y-101226345D01*
X137011454Y-102529879D02*
X136984747Y-102503173D01*
X136984747Y-102503173D02*
X136931335Y-102423054D01*
X136931335Y-102423054D02*
X136904629Y-102369641D01*
X136904629Y-102369641D02*
X136877922Y-102289523D01*
X136877922Y-102289523D02*
X136851216Y-102155991D01*
X136851216Y-102155991D02*
X136851216Y-102049166D01*
X136851216Y-102049166D02*
X136877922Y-101915635D01*
X136877922Y-101915635D02*
X136904629Y-101835516D01*
X136904629Y-101835516D02*
X136931335Y-101782103D01*
X136931335Y-101782103D02*
X136984747Y-101701984D01*
X136984747Y-101701984D02*
X137011454Y-101675278D01*
X137225104Y-102102579D02*
X137652405Y-102102579D01*
X137866054Y-102529879D02*
X137892761Y-102503173D01*
X137892761Y-102503173D02*
X137946173Y-102423054D01*
X137946173Y-102423054D02*
X137972880Y-102369641D01*
X137972880Y-102369641D02*
X137999586Y-102289523D01*
X137999586Y-102289523D02*
X138026292Y-102155991D01*
X138026292Y-102155991D02*
X138026292Y-102049166D01*
X138026292Y-102049166D02*
X137999586Y-101915635D01*
X137999586Y-101915635D02*
X137972880Y-101835516D01*
X137972880Y-101835516D02*
X137946173Y-101782103D01*
X137946173Y-101782103D02*
X137892761Y-101701984D01*
X137892761Y-101701984D02*
X137866054Y-101675278D01*
D13*
X131033311Y-102383897D02*
X131140136Y-102419505D01*
X131140136Y-102419505D02*
X131318178Y-102419505D01*
X131318178Y-102419505D02*
X131389395Y-102383897D01*
X131389395Y-102383897D02*
X131425003Y-102348288D01*
X131425003Y-102348288D02*
X131460612Y-102277071D01*
X131460612Y-102277071D02*
X131460612Y-102205855D01*
X131460612Y-102205855D02*
X131425003Y-102134638D01*
X131425003Y-102134638D02*
X131389395Y-102099029D01*
X131389395Y-102099029D02*
X131318178Y-102063421D01*
X131318178Y-102063421D02*
X131175745Y-102027813D01*
X131175745Y-102027813D02*
X131104528Y-101992204D01*
X131104528Y-101992204D02*
X131068919Y-101956596D01*
X131068919Y-101956596D02*
X131033311Y-101885379D01*
X131033311Y-101885379D02*
X131033311Y-101814162D01*
X131033311Y-101814162D02*
X131068919Y-101742946D01*
X131068919Y-101742946D02*
X131104528Y-101707337D01*
X131104528Y-101707337D02*
X131175745Y-101671729D01*
X131175745Y-101671729D02*
X131353786Y-101671729D01*
X131353786Y-101671729D02*
X131460612Y-101707337D01*
X131781087Y-102419505D02*
X131781087Y-101671729D01*
X131781087Y-101671729D02*
X131959129Y-101671729D01*
X131959129Y-101671729D02*
X132065954Y-101707337D01*
X132065954Y-101707337D02*
X132137171Y-101778554D01*
X132137171Y-101778554D02*
X132172780Y-101849771D01*
X132172780Y-101849771D02*
X132208388Y-101992204D01*
X132208388Y-101992204D02*
X132208388Y-102099029D01*
X132208388Y-102099029D02*
X132172780Y-102241463D01*
X132172780Y-102241463D02*
X132137171Y-102312680D01*
X132137171Y-102312680D02*
X132065954Y-102383897D01*
X132065954Y-102383897D02*
X131959129Y-102419505D01*
X131959129Y-102419505D02*
X131781087Y-102419505D01*
X132493255Y-102205855D02*
X132849339Y-102205855D01*
X132422038Y-102419505D02*
X132671297Y-101671729D01*
X132671297Y-101671729D02*
X132920556Y-102419505D01*
D16*
X157498568Y-105926994D02*
X157498568Y-105211730D01*
X157498568Y-105211730D02*
X157771050Y-105211730D01*
X157771050Y-105211730D02*
X157839170Y-105245790D01*
X157839170Y-105245790D02*
X157873231Y-105279850D01*
X157873231Y-105279850D02*
X157907291Y-105347970D01*
X157907291Y-105347970D02*
X157907291Y-105450151D01*
X157907291Y-105450151D02*
X157873231Y-105518271D01*
X157873231Y-105518271D02*
X157839170Y-105552332D01*
X157839170Y-105552332D02*
X157771050Y-105586392D01*
X157771050Y-105586392D02*
X157498568Y-105586392D01*
X158350073Y-105211730D02*
X158486314Y-105211730D01*
X158486314Y-105211730D02*
X158554434Y-105245790D01*
X158554434Y-105245790D02*
X158622555Y-105313910D01*
X158622555Y-105313910D02*
X158656615Y-105450151D01*
X158656615Y-105450151D02*
X158656615Y-105688572D01*
X158656615Y-105688572D02*
X158622555Y-105824813D01*
X158622555Y-105824813D02*
X158554434Y-105892934D01*
X158554434Y-105892934D02*
X158486314Y-105926994D01*
X158486314Y-105926994D02*
X158350073Y-105926994D01*
X158350073Y-105926994D02*
X158281953Y-105892934D01*
X158281953Y-105892934D02*
X158213832Y-105824813D01*
X158213832Y-105824813D02*
X158179772Y-105688572D01*
X158179772Y-105688572D02*
X158179772Y-105450151D01*
X158179772Y-105450151D02*
X158213832Y-105313910D01*
X158213832Y-105313910D02*
X158281953Y-105245790D01*
X158281953Y-105245790D02*
X158350073Y-105211730D01*
X159303758Y-105926994D02*
X158963156Y-105926994D01*
X158963156Y-105926994D02*
X158963156Y-105211730D01*
X159508119Y-105722633D02*
X159848721Y-105722633D01*
X159439999Y-105926994D02*
X159678420Y-105211730D01*
X159678420Y-105211730D02*
X159916842Y-105926994D01*
X160563985Y-105926994D02*
X160325563Y-105586392D01*
X160155262Y-105926994D02*
X160155262Y-105211730D01*
X160155262Y-105211730D02*
X160427744Y-105211730D01*
X160427744Y-105211730D02*
X160495864Y-105245790D01*
X160495864Y-105245790D02*
X160529925Y-105279850D01*
X160529925Y-105279850D02*
X160563985Y-105347970D01*
X160563985Y-105347970D02*
X160563985Y-105450151D01*
X160563985Y-105450151D02*
X160529925Y-105518271D01*
X160529925Y-105518271D02*
X160495864Y-105552332D01*
X160495864Y-105552332D02*
X160427744Y-105586392D01*
X160427744Y-105586392D02*
X160155262Y-105586392D01*
X160870526Y-105926994D02*
X160870526Y-105211730D01*
X161108948Y-105211730D02*
X161517670Y-105211730D01*
X161313309Y-105926994D02*
X161313309Y-105211730D01*
X161892332Y-105586392D02*
X161892332Y-105926994D01*
X161653911Y-105211730D02*
X161892332Y-105586392D01*
X161892332Y-105586392D02*
X162130754Y-105211730D01*
D13*
X127782111Y-97253097D02*
X127888936Y-97288705D01*
X127888936Y-97288705D02*
X128066978Y-97288705D01*
X128066978Y-97288705D02*
X128138195Y-97253097D01*
X128138195Y-97253097D02*
X128173803Y-97217488D01*
X128173803Y-97217488D02*
X128209412Y-97146271D01*
X128209412Y-97146271D02*
X128209412Y-97075055D01*
X128209412Y-97075055D02*
X128173803Y-97003838D01*
X128173803Y-97003838D02*
X128138195Y-96968229D01*
X128138195Y-96968229D02*
X128066978Y-96932621D01*
X128066978Y-96932621D02*
X127924545Y-96897013D01*
X127924545Y-96897013D02*
X127853328Y-96861404D01*
X127853328Y-96861404D02*
X127817719Y-96825796D01*
X127817719Y-96825796D02*
X127782111Y-96754579D01*
X127782111Y-96754579D02*
X127782111Y-96683362D01*
X127782111Y-96683362D02*
X127817719Y-96612146D01*
X127817719Y-96612146D02*
X127853328Y-96576537D01*
X127853328Y-96576537D02*
X127924545Y-96540929D01*
X127924545Y-96540929D02*
X128102586Y-96540929D01*
X128102586Y-96540929D02*
X128209412Y-96576537D01*
X128529887Y-97288705D02*
X128529887Y-96540929D01*
X128529887Y-96540929D02*
X128707929Y-96540929D01*
X128707929Y-96540929D02*
X128814754Y-96576537D01*
X128814754Y-96576537D02*
X128885971Y-96647754D01*
X128885971Y-96647754D02*
X128921580Y-96718971D01*
X128921580Y-96718971D02*
X128957188Y-96861404D01*
X128957188Y-96861404D02*
X128957188Y-96968229D01*
X128957188Y-96968229D02*
X128921580Y-97110663D01*
X128921580Y-97110663D02*
X128885971Y-97181880D01*
X128885971Y-97181880D02*
X128814754Y-97253097D01*
X128814754Y-97253097D02*
X128707929Y-97288705D01*
X128707929Y-97288705D02*
X128529887Y-97288705D01*
X129242055Y-97075055D02*
X129598139Y-97075055D01*
X129170838Y-97288705D02*
X129420097Y-96540929D01*
X129420097Y-96540929D02*
X129669356Y-97288705D01*
D14*
X154680938Y-104416417D02*
X154255186Y-104416417D01*
X154255186Y-104416417D02*
X154212610Y-104842169D01*
X154212610Y-104842169D02*
X154255186Y-104799594D01*
X154255186Y-104799594D02*
X154340336Y-104757019D01*
X154340336Y-104757019D02*
X154553212Y-104757019D01*
X154553212Y-104757019D02*
X154638363Y-104799594D01*
X154638363Y-104799594D02*
X154680938Y-104842169D01*
X154680938Y-104842169D02*
X154723513Y-104927320D01*
X154723513Y-104927320D02*
X154723513Y-105140196D01*
X154723513Y-105140196D02*
X154680938Y-105225346D01*
X154680938Y-105225346D02*
X154638363Y-105267922D01*
X154638363Y-105267922D02*
X154553212Y-105310497D01*
X154553212Y-105310497D02*
X154340336Y-105310497D01*
X154340336Y-105310497D02*
X154255186Y-105267922D01*
X154255186Y-105267922D02*
X154212610Y-105225346D01*
X154638363Y-105855886D02*
X154468062Y-105855886D01*
X154468062Y-105855886D02*
X154382911Y-105898461D01*
X154382911Y-105898461D02*
X154340336Y-105941036D01*
X154340336Y-105941036D02*
X154255186Y-106068762D01*
X154255186Y-106068762D02*
X154212610Y-106239063D01*
X154212610Y-106239063D02*
X154212610Y-106579665D01*
X154212610Y-106579665D02*
X154255186Y-106664815D01*
X154255186Y-106664815D02*
X154297761Y-106707391D01*
X154297761Y-106707391D02*
X154382911Y-106749966D01*
X154382911Y-106749966D02*
X154553212Y-106749966D01*
X154553212Y-106749966D02*
X154638363Y-106707391D01*
X154638363Y-106707391D02*
X154680938Y-106664815D01*
X154680938Y-106664815D02*
X154723513Y-106579665D01*
X154723513Y-106579665D02*
X154723513Y-106366789D01*
X154723513Y-106366789D02*
X154680938Y-106281638D01*
X154680938Y-106281638D02*
X154638363Y-106239063D01*
X154638363Y-106239063D02*
X154553212Y-106196488D01*
X154553212Y-106196488D02*
X154382911Y-106196488D01*
X154382911Y-106196488D02*
X154297761Y-106239063D01*
X154297761Y-106239063D02*
X154255186Y-106281638D01*
X154255186Y-106281638D02*
X154212610Y-106366789D01*
X154170035Y-107295355D02*
X154766089Y-107295355D01*
X154766089Y-107295355D02*
X154382911Y-108189435D01*
X154382911Y-109118001D02*
X154297761Y-109075426D01*
X154297761Y-109075426D02*
X154255186Y-109032850D01*
X154255186Y-109032850D02*
X154212610Y-108947700D01*
X154212610Y-108947700D02*
X154212610Y-108905125D01*
X154212610Y-108905125D02*
X154255186Y-108819974D01*
X154255186Y-108819974D02*
X154297761Y-108777399D01*
X154297761Y-108777399D02*
X154382911Y-108734824D01*
X154382911Y-108734824D02*
X154553212Y-108734824D01*
X154553212Y-108734824D02*
X154638363Y-108777399D01*
X154638363Y-108777399D02*
X154680938Y-108819974D01*
X154680938Y-108819974D02*
X154723513Y-108905125D01*
X154723513Y-108905125D02*
X154723513Y-108947700D01*
X154723513Y-108947700D02*
X154680938Y-109032850D01*
X154680938Y-109032850D02*
X154638363Y-109075426D01*
X154638363Y-109075426D02*
X154553212Y-109118001D01*
X154553212Y-109118001D02*
X154382911Y-109118001D01*
X154382911Y-109118001D02*
X154297761Y-109160576D01*
X154297761Y-109160576D02*
X154255186Y-109203151D01*
X154255186Y-109203151D02*
X154212610Y-109288302D01*
X154212610Y-109288302D02*
X154212610Y-109458603D01*
X154212610Y-109458603D02*
X154255186Y-109543753D01*
X154255186Y-109543753D02*
X154297761Y-109586329D01*
X154297761Y-109586329D02*
X154382911Y-109628904D01*
X154382911Y-109628904D02*
X154553212Y-109628904D01*
X154553212Y-109628904D02*
X154638363Y-109586329D01*
X154638363Y-109586329D02*
X154680938Y-109543753D01*
X154680938Y-109543753D02*
X154723513Y-109458603D01*
X154723513Y-109458603D02*
X154723513Y-109288302D01*
X154723513Y-109288302D02*
X154680938Y-109203151D01*
X154680938Y-109203151D02*
X154638363Y-109160576D01*
X154638363Y-109160576D02*
X154553212Y-109118001D01*
X154297761Y-111068373D02*
X154468062Y-111068373D01*
X154468062Y-111068373D02*
X154553212Y-111025798D01*
X154553212Y-111025798D02*
X154595788Y-110983222D01*
X154595788Y-110983222D02*
X154680938Y-110855497D01*
X154680938Y-110855497D02*
X154723513Y-110685196D01*
X154723513Y-110685196D02*
X154723513Y-110344594D01*
X154723513Y-110344594D02*
X154680938Y-110259443D01*
X154680938Y-110259443D02*
X154638363Y-110216868D01*
X154638363Y-110216868D02*
X154553212Y-110174293D01*
X154553212Y-110174293D02*
X154382911Y-110174293D01*
X154382911Y-110174293D02*
X154297761Y-110216868D01*
X154297761Y-110216868D02*
X154255186Y-110259443D01*
X154255186Y-110259443D02*
X154212610Y-110344594D01*
X154212610Y-110344594D02*
X154212610Y-110557470D01*
X154212610Y-110557470D02*
X154255186Y-110642620D01*
X154255186Y-110642620D02*
X154297761Y-110685196D01*
X154297761Y-110685196D02*
X154382911Y-110727771D01*
X154382911Y-110727771D02*
X154553212Y-110727771D01*
X154553212Y-110727771D02*
X154638363Y-110685196D01*
X154638363Y-110685196D02*
X154680938Y-110642620D01*
X154680938Y-110642620D02*
X154723513Y-110557470D01*
X154723513Y-112507842D02*
X154212610Y-112507842D01*
X154468062Y-112507842D02*
X154468062Y-111613762D01*
X154468062Y-111613762D02*
X154382911Y-111741487D01*
X154382911Y-111741487D02*
X154297761Y-111826638D01*
X154297761Y-111826638D02*
X154212610Y-111869213D01*
X155276992Y-111613762D02*
X155362142Y-111613762D01*
X155362142Y-111613762D02*
X155447293Y-111656337D01*
X155447293Y-111656337D02*
X155489868Y-111698912D01*
X155489868Y-111698912D02*
X155532443Y-111784063D01*
X155532443Y-111784063D02*
X155575018Y-111954364D01*
X155575018Y-111954364D02*
X155575018Y-112167240D01*
X155575018Y-112167240D02*
X155532443Y-112337541D01*
X155532443Y-112337541D02*
X155489868Y-112422691D01*
X155489868Y-112422691D02*
X155447293Y-112465267D01*
X155447293Y-112465267D02*
X155362142Y-112507842D01*
X155362142Y-112507842D02*
X155276992Y-112507842D01*
X155276992Y-112507842D02*
X155191841Y-112465267D01*
X155191841Y-112465267D02*
X155149266Y-112422691D01*
X155149266Y-112422691D02*
X155106691Y-112337541D01*
X155106691Y-112337541D02*
X155064115Y-112167240D01*
X155064115Y-112167240D02*
X155064115Y-111954364D01*
X155064115Y-111954364D02*
X155106691Y-111784063D01*
X155106691Y-111784063D02*
X155149266Y-111698912D01*
X155149266Y-111698912D02*
X155191841Y-111656337D01*
X155191841Y-111656337D02*
X155276992Y-111613762D01*
X145697563Y-109371788D02*
X145697563Y-109967842D01*
X145484687Y-109031187D02*
X145271810Y-109669815D01*
X145271810Y-109669815D02*
X145825289Y-109669815D01*
X146165891Y-109882691D02*
X146208466Y-109925267D01*
X146208466Y-109925267D02*
X146165891Y-109967842D01*
X146165891Y-109967842D02*
X146123315Y-109925267D01*
X146123315Y-109925267D02*
X146165891Y-109882691D01*
X146165891Y-109882691D02*
X146165891Y-109967842D01*
X146506492Y-109073762D02*
X147102546Y-109073762D01*
X147102546Y-109073762D02*
X146719368Y-109967842D01*
X147443148Y-109967842D02*
X147443148Y-109073762D01*
X147954051Y-109967842D02*
X147570873Y-109456939D01*
X147954051Y-109073762D02*
X147443148Y-109584665D01*
X148294652Y-109967842D02*
X148507529Y-109967842D01*
X148507529Y-109967842D02*
X148507529Y-109797541D01*
X148507529Y-109797541D02*
X148422378Y-109754966D01*
X148422378Y-109754966D02*
X148337228Y-109669815D01*
X148337228Y-109669815D02*
X148294652Y-109542089D01*
X148294652Y-109542089D02*
X148294652Y-109329213D01*
X148294652Y-109329213D02*
X148337228Y-109201487D01*
X148337228Y-109201487D02*
X148422378Y-109116337D01*
X148422378Y-109116337D02*
X148550104Y-109073762D01*
X148550104Y-109073762D02*
X148720405Y-109073762D01*
X148720405Y-109073762D02*
X148848131Y-109116337D01*
X148848131Y-109116337D02*
X148933281Y-109201487D01*
X148933281Y-109201487D02*
X148975856Y-109329213D01*
X148975856Y-109329213D02*
X148975856Y-109542089D01*
X148975856Y-109542089D02*
X148933281Y-109669815D01*
X148933281Y-109669815D02*
X148848131Y-109754966D01*
X148848131Y-109754966D02*
X148762980Y-109797541D01*
X148762980Y-109797541D02*
X148762980Y-109967842D01*
X148762980Y-109967842D02*
X148975856Y-109967842D01*
X149635289Y-103363842D02*
X149337262Y-102938089D01*
X149124386Y-103363842D02*
X149124386Y-102469762D01*
X149124386Y-102469762D02*
X149464988Y-102469762D01*
X149464988Y-102469762D02*
X149550138Y-102512337D01*
X149550138Y-102512337D02*
X149592713Y-102554912D01*
X149592713Y-102554912D02*
X149635289Y-102640063D01*
X149635289Y-102640063D02*
X149635289Y-102767788D01*
X149635289Y-102767788D02*
X149592713Y-102852939D01*
X149592713Y-102852939D02*
X149550138Y-102895514D01*
X149550138Y-102895514D02*
X149464988Y-102938089D01*
X149464988Y-102938089D02*
X149124386Y-102938089D01*
X150444218Y-103363842D02*
X150018466Y-103363842D01*
X150018466Y-103363842D02*
X150018466Y-102469762D01*
X151082847Y-103321267D02*
X150997696Y-103363842D01*
X150997696Y-103363842D02*
X150827395Y-103363842D01*
X150827395Y-103363842D02*
X150742245Y-103321267D01*
X150742245Y-103321267D02*
X150699669Y-103236116D01*
X150699669Y-103236116D02*
X150699669Y-102895514D01*
X150699669Y-102895514D02*
X150742245Y-102810364D01*
X150742245Y-102810364D02*
X150827395Y-102767788D01*
X150827395Y-102767788D02*
X150997696Y-102767788D01*
X150997696Y-102767788D02*
X151082847Y-102810364D01*
X151082847Y-102810364D02*
X151125422Y-102895514D01*
X151125422Y-102895514D02*
X151125422Y-102980665D01*
X151125422Y-102980665D02*
X150699669Y-103065815D01*
X151891776Y-103363842D02*
X151891776Y-102469762D01*
X151891776Y-103321267D02*
X151806625Y-103363842D01*
X151806625Y-103363842D02*
X151636324Y-103363842D01*
X151636324Y-103363842D02*
X151551174Y-103321267D01*
X151551174Y-103321267D02*
X151508599Y-103278691D01*
X151508599Y-103278691D02*
X151466023Y-103193541D01*
X151466023Y-103193541D02*
X151466023Y-102938089D01*
X151466023Y-102938089D02*
X151508599Y-102852939D01*
X151508599Y-102852939D02*
X151551174Y-102810364D01*
X151551174Y-102810364D02*
X151636324Y-102767788D01*
X151636324Y-102767788D02*
X151806625Y-102767788D01*
X151806625Y-102767788D02*
X151891776Y-102810364D01*
D13*
X175772919Y-109480705D02*
X175772919Y-108732929D01*
X176271437Y-108732929D02*
X176413870Y-108732929D01*
X176413870Y-108732929D02*
X176485087Y-108768537D01*
X176485087Y-108768537D02*
X176556304Y-108839754D01*
X176556304Y-108839754D02*
X176591912Y-108982188D01*
X176591912Y-108982188D02*
X176591912Y-109231446D01*
X176591912Y-109231446D02*
X176556304Y-109373880D01*
X176556304Y-109373880D02*
X176485087Y-109445097D01*
X176485087Y-109445097D02*
X176413870Y-109480705D01*
X176413870Y-109480705D02*
X176271437Y-109480705D01*
X176271437Y-109480705D02*
X176200220Y-109445097D01*
X176200220Y-109445097D02*
X176129003Y-109373880D01*
X176129003Y-109373880D02*
X176093395Y-109231446D01*
X176093395Y-109231446D02*
X176093395Y-108982188D01*
X176093395Y-108982188D02*
X176129003Y-108839754D01*
X176129003Y-108839754D02*
X176200220Y-108768537D01*
X176200220Y-108768537D02*
X176271437Y-108732929D01*
X176876779Y-108804146D02*
X176912387Y-108768537D01*
X176912387Y-108768537D02*
X176983604Y-108732929D01*
X176983604Y-108732929D02*
X177161646Y-108732929D01*
X177161646Y-108732929D02*
X177232863Y-108768537D01*
X177232863Y-108768537D02*
X177268471Y-108804146D01*
X177268471Y-108804146D02*
X177304080Y-108875362D01*
X177304080Y-108875362D02*
X177304080Y-108946579D01*
X177304080Y-108946579D02*
X177268471Y-109053404D01*
X177268471Y-109053404D02*
X176841171Y-109480705D01*
X176841171Y-109480705D02*
X177304080Y-109480705D01*
X158287511Y-97253097D02*
X158394336Y-97288705D01*
X158394336Y-97288705D02*
X158572378Y-97288705D01*
X158572378Y-97288705D02*
X158643595Y-97253097D01*
X158643595Y-97253097D02*
X158679203Y-97217488D01*
X158679203Y-97217488D02*
X158714812Y-97146271D01*
X158714812Y-97146271D02*
X158714812Y-97075055D01*
X158714812Y-97075055D02*
X158679203Y-97003838D01*
X158679203Y-97003838D02*
X158643595Y-96968229D01*
X158643595Y-96968229D02*
X158572378Y-96932621D01*
X158572378Y-96932621D02*
X158429945Y-96897013D01*
X158429945Y-96897013D02*
X158358728Y-96861404D01*
X158358728Y-96861404D02*
X158323119Y-96825796D01*
X158323119Y-96825796D02*
X158287511Y-96754579D01*
X158287511Y-96754579D02*
X158287511Y-96683362D01*
X158287511Y-96683362D02*
X158323119Y-96612146D01*
X158323119Y-96612146D02*
X158358728Y-96576537D01*
X158358728Y-96576537D02*
X158429945Y-96540929D01*
X158429945Y-96540929D02*
X158607986Y-96540929D01*
X158607986Y-96540929D02*
X158714812Y-96576537D01*
X159462588Y-97217488D02*
X159426980Y-97253097D01*
X159426980Y-97253097D02*
X159320154Y-97288705D01*
X159320154Y-97288705D02*
X159248938Y-97288705D01*
X159248938Y-97288705D02*
X159142113Y-97253097D01*
X159142113Y-97253097D02*
X159070896Y-97181880D01*
X159070896Y-97181880D02*
X159035287Y-97110663D01*
X159035287Y-97110663D02*
X158999679Y-96968229D01*
X158999679Y-96968229D02*
X158999679Y-96861404D01*
X158999679Y-96861404D02*
X159035287Y-96718971D01*
X159035287Y-96718971D02*
X159070896Y-96647754D01*
X159070896Y-96647754D02*
X159142113Y-96576537D01*
X159142113Y-96576537D02*
X159248938Y-96540929D01*
X159248938Y-96540929D02*
X159320154Y-96540929D01*
X159320154Y-96540929D02*
X159426980Y-96576537D01*
X159426980Y-96576537D02*
X159462588Y-96612146D01*
X160139147Y-97288705D02*
X159783063Y-97288705D01*
X159783063Y-97288705D02*
X159783063Y-96540929D01*
D15*
X134126884Y-101413289D02*
X133806409Y-101413289D01*
X133966646Y-101413289D02*
X133966646Y-100852457D01*
X133966646Y-100852457D02*
X133913234Y-100932576D01*
X133913234Y-100932576D02*
X133859821Y-100985988D01*
X133859821Y-100985988D02*
X133806409Y-101012695D01*
X134340535Y-100905869D02*
X134367241Y-100879163D01*
X134367241Y-100879163D02*
X134420654Y-100852457D01*
X134420654Y-100852457D02*
X134554185Y-100852457D01*
X134554185Y-100852457D02*
X134607598Y-100879163D01*
X134607598Y-100879163D02*
X134634304Y-100905869D01*
X134634304Y-100905869D02*
X134661010Y-100959282D01*
X134661010Y-100959282D02*
X134661010Y-101012695D01*
X134661010Y-101012695D02*
X134634304Y-101092813D01*
X134634304Y-101092813D02*
X134313828Y-101413289D01*
X134313828Y-101413289D02*
X134661010Y-101413289D01*
X134847954Y-100852457D02*
X135195136Y-100852457D01*
X135195136Y-100852457D02*
X135008192Y-101066107D01*
X135008192Y-101066107D02*
X135088311Y-101066107D01*
X135088311Y-101066107D02*
X135141724Y-101092813D01*
X135141724Y-101092813D02*
X135168430Y-101119520D01*
X135168430Y-101119520D02*
X135195136Y-101172932D01*
X135195136Y-101172932D02*
X135195136Y-101306464D01*
X135195136Y-101306464D02*
X135168430Y-101359876D01*
X135168430Y-101359876D02*
X135141724Y-101386583D01*
X135141724Y-101386583D02*
X135088311Y-101413289D01*
X135088311Y-101413289D02*
X134928073Y-101413289D01*
X134928073Y-101413289D02*
X134874661Y-101386583D01*
X134874661Y-101386583D02*
X134847954Y-101359876D01*
X135675850Y-101039401D02*
X135675850Y-101413289D01*
X135542318Y-100825751D02*
X135408787Y-101226345D01*
X135408787Y-101226345D02*
X135755968Y-101226345D01*
X134420654Y-102529879D02*
X134393947Y-102503173D01*
X134393947Y-102503173D02*
X134340535Y-102423054D01*
X134340535Y-102423054D02*
X134313829Y-102369641D01*
X134313829Y-102369641D02*
X134287122Y-102289523D01*
X134287122Y-102289523D02*
X134260416Y-102155991D01*
X134260416Y-102155991D02*
X134260416Y-102049166D01*
X134260416Y-102049166D02*
X134287122Y-101915635D01*
X134287122Y-101915635D02*
X134313829Y-101835516D01*
X134313829Y-101835516D02*
X134340535Y-101782103D01*
X134340535Y-101782103D02*
X134393947Y-101701984D01*
X134393947Y-101701984D02*
X134420654Y-101675278D01*
X134634304Y-102102579D02*
X135061605Y-102102579D01*
X134847954Y-102316229D02*
X134847954Y-101888928D01*
X135275254Y-102529879D02*
X135301961Y-102503173D01*
X135301961Y-102503173D02*
X135355373Y-102423054D01*
X135355373Y-102423054D02*
X135382080Y-102369641D01*
X135382080Y-102369641D02*
X135408786Y-102289523D01*
X135408786Y-102289523D02*
X135435492Y-102155991D01*
X135435492Y-102155991D02*
X135435492Y-102049166D01*
X135435492Y-102049166D02*
X135408786Y-101915635D01*
X135408786Y-101915635D02*
X135382080Y-101835516D01*
X135382080Y-101835516D02*
X135355373Y-101782103D01*
X135355373Y-101782103D02*
X135301961Y-101701984D01*
X135301961Y-101701984D02*
X135275254Y-101675278D01*
D13*
X128442511Y-102358497D02*
X128549336Y-102394105D01*
X128549336Y-102394105D02*
X128727378Y-102394105D01*
X128727378Y-102394105D02*
X128798595Y-102358497D01*
X128798595Y-102358497D02*
X128834203Y-102322888D01*
X128834203Y-102322888D02*
X128869812Y-102251671D01*
X128869812Y-102251671D02*
X128869812Y-102180455D01*
X128869812Y-102180455D02*
X128834203Y-102109238D01*
X128834203Y-102109238D02*
X128798595Y-102073629D01*
X128798595Y-102073629D02*
X128727378Y-102038021D01*
X128727378Y-102038021D02*
X128584945Y-102002413D01*
X128584945Y-102002413D02*
X128513728Y-101966804D01*
X128513728Y-101966804D02*
X128478119Y-101931196D01*
X128478119Y-101931196D02*
X128442511Y-101859979D01*
X128442511Y-101859979D02*
X128442511Y-101788762D01*
X128442511Y-101788762D02*
X128478119Y-101717546D01*
X128478119Y-101717546D02*
X128513728Y-101681937D01*
X128513728Y-101681937D02*
X128584945Y-101646329D01*
X128584945Y-101646329D02*
X128762986Y-101646329D01*
X128762986Y-101646329D02*
X128869812Y-101681937D01*
X129617588Y-102322888D02*
X129581980Y-102358497D01*
X129581980Y-102358497D02*
X129475154Y-102394105D01*
X129475154Y-102394105D02*
X129403938Y-102394105D01*
X129403938Y-102394105D02*
X129297113Y-102358497D01*
X129297113Y-102358497D02*
X129225896Y-102287280D01*
X129225896Y-102287280D02*
X129190287Y-102216063D01*
X129190287Y-102216063D02*
X129154679Y-102073629D01*
X129154679Y-102073629D02*
X129154679Y-101966804D01*
X129154679Y-101966804D02*
X129190287Y-101824371D01*
X129190287Y-101824371D02*
X129225896Y-101753154D01*
X129225896Y-101753154D02*
X129297113Y-101681937D01*
X129297113Y-101681937D02*
X129403938Y-101646329D01*
X129403938Y-101646329D02*
X129475154Y-101646329D01*
X129475154Y-101646329D02*
X129581980Y-101681937D01*
X129581980Y-101681937D02*
X129617588Y-101717546D01*
X130294147Y-102394105D02*
X129938063Y-102394105D01*
X129938063Y-102394105D02*
X129938063Y-101646329D01*
D14*
X164758086Y-105929242D02*
X164758086Y-105035162D01*
X164758086Y-105035162D02*
X165098688Y-105035162D01*
X165098688Y-105035162D02*
X165183838Y-105077737D01*
X165183838Y-105077737D02*
X165226413Y-105120312D01*
X165226413Y-105120312D02*
X165268989Y-105205463D01*
X165268989Y-105205463D02*
X165268989Y-105333188D01*
X165268989Y-105333188D02*
X165226413Y-105418339D01*
X165226413Y-105418339D02*
X165183838Y-105460914D01*
X165183838Y-105460914D02*
X165098688Y-105503489D01*
X165098688Y-105503489D02*
X164758086Y-105503489D01*
X165822467Y-105035162D02*
X165992768Y-105035162D01*
X165992768Y-105035162D02*
X166077918Y-105077737D01*
X166077918Y-105077737D02*
X166163069Y-105162887D01*
X166163069Y-105162887D02*
X166205644Y-105333188D01*
X166205644Y-105333188D02*
X166205644Y-105631215D01*
X166205644Y-105631215D02*
X166163069Y-105801516D01*
X166163069Y-105801516D02*
X166077918Y-105886667D01*
X166077918Y-105886667D02*
X165992768Y-105929242D01*
X165992768Y-105929242D02*
X165822467Y-105929242D01*
X165822467Y-105929242D02*
X165737316Y-105886667D01*
X165737316Y-105886667D02*
X165652166Y-105801516D01*
X165652166Y-105801516D02*
X165609590Y-105631215D01*
X165609590Y-105631215D02*
X165609590Y-105333188D01*
X165609590Y-105333188D02*
X165652166Y-105162887D01*
X165652166Y-105162887D02*
X165737316Y-105077737D01*
X165737316Y-105077737D02*
X165822467Y-105035162D01*
X167099724Y-105929242D02*
X166801697Y-105503489D01*
X166588821Y-105929242D02*
X166588821Y-105035162D01*
X166588821Y-105035162D02*
X166929423Y-105035162D01*
X166929423Y-105035162D02*
X167014573Y-105077737D01*
X167014573Y-105077737D02*
X167057148Y-105120312D01*
X167057148Y-105120312D02*
X167099724Y-105205463D01*
X167099724Y-105205463D02*
X167099724Y-105333188D01*
X167099724Y-105333188D02*
X167057148Y-105418339D01*
X167057148Y-105418339D02*
X167014573Y-105460914D01*
X167014573Y-105460914D02*
X166929423Y-105503489D01*
X166929423Y-105503489D02*
X166588821Y-105503489D01*
X167355175Y-105035162D02*
X167866078Y-105035162D01*
X167610626Y-105929242D02*
X167610626Y-105035162D01*
D13*
X125292911Y-97253097D02*
X125399736Y-97288705D01*
X125399736Y-97288705D02*
X125577778Y-97288705D01*
X125577778Y-97288705D02*
X125648995Y-97253097D01*
X125648995Y-97253097D02*
X125684603Y-97217488D01*
X125684603Y-97217488D02*
X125720212Y-97146271D01*
X125720212Y-97146271D02*
X125720212Y-97075055D01*
X125720212Y-97075055D02*
X125684603Y-97003838D01*
X125684603Y-97003838D02*
X125648995Y-96968229D01*
X125648995Y-96968229D02*
X125577778Y-96932621D01*
X125577778Y-96932621D02*
X125435345Y-96897013D01*
X125435345Y-96897013D02*
X125364128Y-96861404D01*
X125364128Y-96861404D02*
X125328519Y-96825796D01*
X125328519Y-96825796D02*
X125292911Y-96754579D01*
X125292911Y-96754579D02*
X125292911Y-96683362D01*
X125292911Y-96683362D02*
X125328519Y-96612146D01*
X125328519Y-96612146D02*
X125364128Y-96576537D01*
X125364128Y-96576537D02*
X125435345Y-96540929D01*
X125435345Y-96540929D02*
X125613386Y-96540929D01*
X125613386Y-96540929D02*
X125720212Y-96576537D01*
X126467988Y-97217488D02*
X126432380Y-97253097D01*
X126432380Y-97253097D02*
X126325554Y-97288705D01*
X126325554Y-97288705D02*
X126254338Y-97288705D01*
X126254338Y-97288705D02*
X126147513Y-97253097D01*
X126147513Y-97253097D02*
X126076296Y-97181880D01*
X126076296Y-97181880D02*
X126040687Y-97110663D01*
X126040687Y-97110663D02*
X126005079Y-96968229D01*
X126005079Y-96968229D02*
X126005079Y-96861404D01*
X126005079Y-96861404D02*
X126040687Y-96718971D01*
X126040687Y-96718971D02*
X126076296Y-96647754D01*
X126076296Y-96647754D02*
X126147513Y-96576537D01*
X126147513Y-96576537D02*
X126254338Y-96540929D01*
X126254338Y-96540929D02*
X126325554Y-96540929D01*
X126325554Y-96540929D02*
X126432380Y-96576537D01*
X126432380Y-96576537D02*
X126467988Y-96612146D01*
X127144547Y-97288705D02*
X126788463Y-97288705D01*
X126788463Y-97288705D02*
X126788463Y-96540929D01*
X144292111Y-97253097D02*
X144398936Y-97288705D01*
X144398936Y-97288705D02*
X144576978Y-97288705D01*
X144576978Y-97288705D02*
X144648195Y-97253097D01*
X144648195Y-97253097D02*
X144683803Y-97217488D01*
X144683803Y-97217488D02*
X144719412Y-97146271D01*
X144719412Y-97146271D02*
X144719412Y-97075055D01*
X144719412Y-97075055D02*
X144683803Y-97003838D01*
X144683803Y-97003838D02*
X144648195Y-96968229D01*
X144648195Y-96968229D02*
X144576978Y-96932621D01*
X144576978Y-96932621D02*
X144434545Y-96897013D01*
X144434545Y-96897013D02*
X144363328Y-96861404D01*
X144363328Y-96861404D02*
X144327719Y-96825796D01*
X144327719Y-96825796D02*
X144292111Y-96754579D01*
X144292111Y-96754579D02*
X144292111Y-96683362D01*
X144292111Y-96683362D02*
X144327719Y-96612146D01*
X144327719Y-96612146D02*
X144363328Y-96576537D01*
X144363328Y-96576537D02*
X144434545Y-96540929D01*
X144434545Y-96540929D02*
X144612586Y-96540929D01*
X144612586Y-96540929D02*
X144719412Y-96576537D01*
X145039887Y-97288705D02*
X145039887Y-96540929D01*
X145039887Y-96540929D02*
X145217929Y-96540929D01*
X145217929Y-96540929D02*
X145324754Y-96576537D01*
X145324754Y-96576537D02*
X145395971Y-96647754D01*
X145395971Y-96647754D02*
X145431580Y-96718971D01*
X145431580Y-96718971D02*
X145467188Y-96861404D01*
X145467188Y-96861404D02*
X145467188Y-96968229D01*
X145467188Y-96968229D02*
X145431580Y-97110663D01*
X145431580Y-97110663D02*
X145395971Y-97181880D01*
X145395971Y-97181880D02*
X145324754Y-97253097D01*
X145324754Y-97253097D02*
X145217929Y-97288705D01*
X145217929Y-97288705D02*
X145039887Y-97288705D01*
X145752055Y-97075055D02*
X146108139Y-97075055D01*
X145680838Y-97288705D02*
X145930097Y-96540929D01*
X145930097Y-96540929D02*
X146179356Y-97288705D01*
D16*
X143106009Y-111053730D02*
X143242250Y-111053730D01*
X143242250Y-111053730D02*
X143310370Y-111087790D01*
X143310370Y-111087790D02*
X143378491Y-111155910D01*
X143378491Y-111155910D02*
X143412551Y-111292151D01*
X143412551Y-111292151D02*
X143412551Y-111530572D01*
X143412551Y-111530572D02*
X143378491Y-111666813D01*
X143378491Y-111666813D02*
X143310370Y-111734934D01*
X143310370Y-111734934D02*
X143242250Y-111768994D01*
X143242250Y-111768994D02*
X143106009Y-111768994D01*
X143106009Y-111768994D02*
X143037889Y-111734934D01*
X143037889Y-111734934D02*
X142969768Y-111666813D01*
X142969768Y-111666813D02*
X142935708Y-111530572D01*
X142935708Y-111530572D02*
X142935708Y-111292151D01*
X142935708Y-111292151D02*
X142969768Y-111155910D01*
X142969768Y-111155910D02*
X143037889Y-111087790D01*
X143037889Y-111087790D02*
X143106009Y-111053730D01*
X143719092Y-111292151D02*
X143719092Y-112007415D01*
X143719092Y-111326211D02*
X143787213Y-111292151D01*
X143787213Y-111292151D02*
X143923454Y-111292151D01*
X143923454Y-111292151D02*
X143991574Y-111326211D01*
X143991574Y-111326211D02*
X144025634Y-111360271D01*
X144025634Y-111360271D02*
X144059694Y-111428392D01*
X144059694Y-111428392D02*
X144059694Y-111632753D01*
X144059694Y-111632753D02*
X144025634Y-111700873D01*
X144025634Y-111700873D02*
X143991574Y-111734934D01*
X143991574Y-111734934D02*
X143923454Y-111768994D01*
X143923454Y-111768994D02*
X143787213Y-111768994D01*
X143787213Y-111768994D02*
X143719092Y-111734934D01*
X144264056Y-111292151D02*
X144536537Y-111292151D01*
X144366236Y-111053730D02*
X144366236Y-111666813D01*
X144366236Y-111666813D02*
X144400297Y-111734934D01*
X144400297Y-111734934D02*
X144468417Y-111768994D01*
X144468417Y-111768994D02*
X144536537Y-111768994D01*
X144774958Y-111700873D02*
X144809019Y-111734934D01*
X144809019Y-111734934D02*
X144774958Y-111768994D01*
X144774958Y-111768994D02*
X144740898Y-111734934D01*
X144740898Y-111734934D02*
X144774958Y-111700873D01*
X144774958Y-111700873D02*
X144774958Y-111768994D01*
X145660523Y-111768994D02*
X145660523Y-111053730D01*
X145660523Y-111053730D02*
X145933005Y-111053730D01*
X145933005Y-111053730D02*
X146001125Y-111087790D01*
X146001125Y-111087790D02*
X146035186Y-111121850D01*
X146035186Y-111121850D02*
X146069246Y-111189970D01*
X146069246Y-111189970D02*
X146069246Y-111292151D01*
X146069246Y-111292151D02*
X146035186Y-111360271D01*
X146035186Y-111360271D02*
X146001125Y-111394332D01*
X146001125Y-111394332D02*
X145933005Y-111428392D01*
X145933005Y-111428392D02*
X145660523Y-111428392D01*
X146682329Y-111292151D02*
X146682329Y-111768994D01*
X146375787Y-111292151D02*
X146375787Y-111666813D01*
X146375787Y-111666813D02*
X146409848Y-111734934D01*
X146409848Y-111734934D02*
X146477968Y-111768994D01*
X146477968Y-111768994D02*
X146580149Y-111768994D01*
X146580149Y-111768994D02*
X146648269Y-111734934D01*
X146648269Y-111734934D02*
X146682329Y-111700873D01*
X147125112Y-111768994D02*
X147056992Y-111734934D01*
X147056992Y-111734934D02*
X147022931Y-111666813D01*
X147022931Y-111666813D02*
X147022931Y-111053730D01*
X147499774Y-111768994D02*
X147431654Y-111734934D01*
X147431654Y-111734934D02*
X147397593Y-111666813D01*
X147397593Y-111666813D02*
X147397593Y-111053730D01*
X147772255Y-111053730D02*
X147772255Y-111632753D01*
X147772255Y-111632753D02*
X147806316Y-111700873D01*
X147806316Y-111700873D02*
X147840376Y-111734934D01*
X147840376Y-111734934D02*
X147908496Y-111768994D01*
X147908496Y-111768994D02*
X148044737Y-111768994D01*
X148044737Y-111768994D02*
X148112857Y-111734934D01*
X148112857Y-111734934D02*
X148146918Y-111700873D01*
X148146918Y-111700873D02*
X148180978Y-111632753D01*
X148180978Y-111632753D02*
X148180978Y-111053730D01*
X148521579Y-111292151D02*
X148521579Y-112007415D01*
X148521579Y-111326211D02*
X148589700Y-111292151D01*
X148589700Y-111292151D02*
X148725941Y-111292151D01*
X148725941Y-111292151D02*
X148794061Y-111326211D01*
X148794061Y-111326211D02*
X148828121Y-111360271D01*
X148828121Y-111360271D02*
X148862181Y-111428392D01*
X148862181Y-111428392D02*
X148862181Y-111632753D01*
X148862181Y-111632753D02*
X148828121Y-111700873D01*
X148828121Y-111700873D02*
X148794061Y-111734934D01*
X148794061Y-111734934D02*
X148725941Y-111768994D01*
X148725941Y-111768994D02*
X148589700Y-111768994D01*
X148589700Y-111768994D02*
X148521579Y-111734934D01*
X149713686Y-111768994D02*
X149713686Y-111053730D01*
X150020228Y-111121850D02*
X150054288Y-111087790D01*
X150054288Y-111087790D02*
X150122409Y-111053730D01*
X150122409Y-111053730D02*
X150292710Y-111053730D01*
X150292710Y-111053730D02*
X150360830Y-111087790D01*
X150360830Y-111087790D02*
X150394890Y-111121850D01*
X150394890Y-111121850D02*
X150428951Y-111189970D01*
X150428951Y-111189970D02*
X150428951Y-111258091D01*
X150428951Y-111258091D02*
X150394890Y-111360271D01*
X150394890Y-111360271D02*
X149986168Y-111768994D01*
X149986168Y-111768994D02*
X150428951Y-111768994D01*
X151144215Y-111700873D02*
X151110155Y-111734934D01*
X151110155Y-111734934D02*
X151007974Y-111768994D01*
X151007974Y-111768994D02*
X150939854Y-111768994D01*
X150939854Y-111768994D02*
X150837673Y-111734934D01*
X150837673Y-111734934D02*
X150769553Y-111666813D01*
X150769553Y-111666813D02*
X150735492Y-111598693D01*
X150735492Y-111598693D02*
X150701432Y-111462452D01*
X150701432Y-111462452D02*
X150701432Y-111360271D01*
X150701432Y-111360271D02*
X150735492Y-111224031D01*
X150735492Y-111224031D02*
X150769553Y-111155910D01*
X150769553Y-111155910D02*
X150837673Y-111087790D01*
X150837673Y-111087790D02*
X150939854Y-111053730D01*
X150939854Y-111053730D02*
X151007974Y-111053730D01*
X151007974Y-111053730D02*
X151110155Y-111087790D01*
X151110155Y-111087790D02*
X151144215Y-111121850D01*
D13*
X141559119Y-102368705D02*
X141559119Y-101870188D01*
X141559119Y-101620929D02*
X141523511Y-101656537D01*
X141523511Y-101656537D02*
X141559119Y-101692146D01*
X141559119Y-101692146D02*
X141594728Y-101656537D01*
X141594728Y-101656537D02*
X141559119Y-101620929D01*
X141559119Y-101620929D02*
X141559119Y-101692146D01*
X142022029Y-102368705D02*
X141950812Y-102333097D01*
X141950812Y-102333097D02*
X141915203Y-102297488D01*
X141915203Y-102297488D02*
X141879595Y-102226271D01*
X141879595Y-102226271D02*
X141879595Y-102012621D01*
X141879595Y-102012621D02*
X141915203Y-101941404D01*
X141915203Y-101941404D02*
X141950812Y-101905796D01*
X141950812Y-101905796D02*
X142022029Y-101870188D01*
X142022029Y-101870188D02*
X142128854Y-101870188D01*
X142128854Y-101870188D02*
X142200070Y-101905796D01*
X142200070Y-101905796D02*
X142235679Y-101941404D01*
X142235679Y-101941404D02*
X142271287Y-102012621D01*
X142271287Y-102012621D02*
X142271287Y-102226271D01*
X142271287Y-102226271D02*
X142235679Y-102297488D01*
X142235679Y-102297488D02*
X142200070Y-102333097D01*
X142200070Y-102333097D02*
X142128854Y-102368705D01*
X142128854Y-102368705D02*
X142022029Y-102368705D01*
X142556154Y-101692146D02*
X142591762Y-101656537D01*
X142591762Y-101656537D02*
X142662979Y-101620929D01*
X142662979Y-101620929D02*
X142841021Y-101620929D01*
X142841021Y-101620929D02*
X142912238Y-101656537D01*
X142912238Y-101656537D02*
X142947846Y-101692146D01*
X142947846Y-101692146D02*
X142983455Y-101763362D01*
X142983455Y-101763362D02*
X142983455Y-101834579D01*
X142983455Y-101834579D02*
X142947846Y-101941404D01*
X142947846Y-101941404D02*
X142520546Y-102368705D01*
X142520546Y-102368705D02*
X142983455Y-102368705D01*
X141777511Y-97253097D02*
X141884336Y-97288705D01*
X141884336Y-97288705D02*
X142062378Y-97288705D01*
X142062378Y-97288705D02*
X142133595Y-97253097D01*
X142133595Y-97253097D02*
X142169203Y-97217488D01*
X142169203Y-97217488D02*
X142204812Y-97146271D01*
X142204812Y-97146271D02*
X142204812Y-97075055D01*
X142204812Y-97075055D02*
X142169203Y-97003838D01*
X142169203Y-97003838D02*
X142133595Y-96968229D01*
X142133595Y-96968229D02*
X142062378Y-96932621D01*
X142062378Y-96932621D02*
X141919945Y-96897013D01*
X141919945Y-96897013D02*
X141848728Y-96861404D01*
X141848728Y-96861404D02*
X141813119Y-96825796D01*
X141813119Y-96825796D02*
X141777511Y-96754579D01*
X141777511Y-96754579D02*
X141777511Y-96683362D01*
X141777511Y-96683362D02*
X141813119Y-96612146D01*
X141813119Y-96612146D02*
X141848728Y-96576537D01*
X141848728Y-96576537D02*
X141919945Y-96540929D01*
X141919945Y-96540929D02*
X142097986Y-96540929D01*
X142097986Y-96540929D02*
X142204812Y-96576537D01*
X142952588Y-97217488D02*
X142916980Y-97253097D01*
X142916980Y-97253097D02*
X142810154Y-97288705D01*
X142810154Y-97288705D02*
X142738938Y-97288705D01*
X142738938Y-97288705D02*
X142632113Y-97253097D01*
X142632113Y-97253097D02*
X142560896Y-97181880D01*
X142560896Y-97181880D02*
X142525287Y-97110663D01*
X142525287Y-97110663D02*
X142489679Y-96968229D01*
X142489679Y-96968229D02*
X142489679Y-96861404D01*
X142489679Y-96861404D02*
X142525287Y-96718971D01*
X142525287Y-96718971D02*
X142560896Y-96647754D01*
X142560896Y-96647754D02*
X142632113Y-96576537D01*
X142632113Y-96576537D02*
X142738938Y-96540929D01*
X142738938Y-96540929D02*
X142810154Y-96540929D01*
X142810154Y-96540929D02*
X142916980Y-96576537D01*
X142916980Y-96576537D02*
X142952588Y-96612146D01*
X143629147Y-97288705D02*
X143273063Y-97288705D01*
X143273063Y-97288705D02*
X143273063Y-96540929D01*
X138942919Y-102368705D02*
X138942919Y-101870188D01*
X138942919Y-101620929D02*
X138907311Y-101656537D01*
X138907311Y-101656537D02*
X138942919Y-101692146D01*
X138942919Y-101692146D02*
X138978528Y-101656537D01*
X138978528Y-101656537D02*
X138942919Y-101620929D01*
X138942919Y-101620929D02*
X138942919Y-101692146D01*
X139405829Y-102368705D02*
X139334612Y-102333097D01*
X139334612Y-102333097D02*
X139299003Y-102297488D01*
X139299003Y-102297488D02*
X139263395Y-102226271D01*
X139263395Y-102226271D02*
X139263395Y-102012621D01*
X139263395Y-102012621D02*
X139299003Y-101941404D01*
X139299003Y-101941404D02*
X139334612Y-101905796D01*
X139334612Y-101905796D02*
X139405829Y-101870188D01*
X139405829Y-101870188D02*
X139512654Y-101870188D01*
X139512654Y-101870188D02*
X139583870Y-101905796D01*
X139583870Y-101905796D02*
X139619479Y-101941404D01*
X139619479Y-101941404D02*
X139655087Y-102012621D01*
X139655087Y-102012621D02*
X139655087Y-102226271D01*
X139655087Y-102226271D02*
X139619479Y-102297488D01*
X139619479Y-102297488D02*
X139583870Y-102333097D01*
X139583870Y-102333097D02*
X139512654Y-102368705D01*
X139512654Y-102368705D02*
X139405829Y-102368705D01*
X140367255Y-102368705D02*
X139939954Y-102368705D01*
X140153604Y-102368705D02*
X140153604Y-101620929D01*
X140153604Y-101620929D02*
X140082388Y-101727754D01*
X140082388Y-101727754D02*
X140011171Y-101798971D01*
X140011171Y-101798971D02*
X139939954Y-101834579D01*
D14*
X150153086Y-105294242D02*
X150153086Y-104400162D01*
X150153086Y-104400162D02*
X150493688Y-104400162D01*
X150493688Y-104400162D02*
X150578838Y-104442737D01*
X150578838Y-104442737D02*
X150621413Y-104485312D01*
X150621413Y-104485312D02*
X150663989Y-104570463D01*
X150663989Y-104570463D02*
X150663989Y-104698188D01*
X150663989Y-104698188D02*
X150621413Y-104783339D01*
X150621413Y-104783339D02*
X150578838Y-104825914D01*
X150578838Y-104825914D02*
X150493688Y-104868489D01*
X150493688Y-104868489D02*
X150153086Y-104868489D01*
X151217467Y-104400162D02*
X151387768Y-104400162D01*
X151387768Y-104400162D02*
X151472918Y-104442737D01*
X151472918Y-104442737D02*
X151558069Y-104527887D01*
X151558069Y-104527887D02*
X151600644Y-104698188D01*
X151600644Y-104698188D02*
X151600644Y-104996215D01*
X151600644Y-104996215D02*
X151558069Y-105166516D01*
X151558069Y-105166516D02*
X151472918Y-105251667D01*
X151472918Y-105251667D02*
X151387768Y-105294242D01*
X151387768Y-105294242D02*
X151217467Y-105294242D01*
X151217467Y-105294242D02*
X151132316Y-105251667D01*
X151132316Y-105251667D02*
X151047166Y-105166516D01*
X151047166Y-105166516D02*
X151004590Y-104996215D01*
X151004590Y-104996215D02*
X151004590Y-104698188D01*
X151004590Y-104698188D02*
X151047166Y-104527887D01*
X151047166Y-104527887D02*
X151132316Y-104442737D01*
X151132316Y-104442737D02*
X151217467Y-104400162D01*
X152494724Y-105294242D02*
X152196697Y-104868489D01*
X151983821Y-105294242D02*
X151983821Y-104400162D01*
X151983821Y-104400162D02*
X152324423Y-104400162D01*
X152324423Y-104400162D02*
X152409573Y-104442737D01*
X152409573Y-104442737D02*
X152452148Y-104485312D01*
X152452148Y-104485312D02*
X152494724Y-104570463D01*
X152494724Y-104570463D02*
X152494724Y-104698188D01*
X152494724Y-104698188D02*
X152452148Y-104783339D01*
X152452148Y-104783339D02*
X152409573Y-104825914D01*
X152409573Y-104825914D02*
X152324423Y-104868489D01*
X152324423Y-104868489D02*
X151983821Y-104868489D01*
X152750175Y-104400162D02*
X153261078Y-104400162D01*
X153005626Y-105294242D02*
X153005626Y-104400162D01*
X145697563Y-112927788D02*
X145697563Y-113523842D01*
X145484687Y-112587187D02*
X145271810Y-113225815D01*
X145271810Y-113225815D02*
X145825289Y-113225815D01*
X146165891Y-113438691D02*
X146208466Y-113481267D01*
X146208466Y-113481267D02*
X146165891Y-113523842D01*
X146165891Y-113523842D02*
X146123315Y-113481267D01*
X146123315Y-113481267D02*
X146165891Y-113438691D01*
X146165891Y-113438691D02*
X146165891Y-113523842D01*
X146506492Y-112629762D02*
X147102546Y-112629762D01*
X147102546Y-112629762D02*
X146719368Y-113523842D01*
X147443148Y-113523842D02*
X147443148Y-112629762D01*
X147954051Y-113523842D02*
X147570873Y-113012939D01*
X147954051Y-112629762D02*
X147443148Y-113140665D01*
X148294652Y-113523842D02*
X148507529Y-113523842D01*
X148507529Y-113523842D02*
X148507529Y-113353541D01*
X148507529Y-113353541D02*
X148422378Y-113310966D01*
X148422378Y-113310966D02*
X148337228Y-113225815D01*
X148337228Y-113225815D02*
X148294652Y-113098089D01*
X148294652Y-113098089D02*
X148294652Y-112885213D01*
X148294652Y-112885213D02*
X148337228Y-112757487D01*
X148337228Y-112757487D02*
X148422378Y-112672337D01*
X148422378Y-112672337D02*
X148550104Y-112629762D01*
X148550104Y-112629762D02*
X148720405Y-112629762D01*
X148720405Y-112629762D02*
X148848131Y-112672337D01*
X148848131Y-112672337D02*
X148933281Y-112757487D01*
X148933281Y-112757487D02*
X148975856Y-112885213D01*
X148975856Y-112885213D02*
X148975856Y-113098089D01*
X148975856Y-113098089D02*
X148933281Y-113225815D01*
X148933281Y-113225815D02*
X148848131Y-113310966D01*
X148848131Y-113310966D02*
X148762980Y-113353541D01*
X148762980Y-113353541D02*
X148762980Y-113523842D01*
X148762980Y-113523842D02*
X148975856Y-113523842D01*
D10*
X120218524Y-103012140D02*
X120112086Y-102958921D01*
X120112086Y-102958921D02*
X120005648Y-102852483D01*
X120005648Y-102852483D02*
X119845991Y-102692825D01*
X119845991Y-102692825D02*
X119739553Y-102639606D01*
X119739553Y-102639606D02*
X119633115Y-102639606D01*
X119686334Y-102905702D02*
X119579896Y-102852483D01*
X119579896Y-102852483D02*
X119473458Y-102746044D01*
X119473458Y-102746044D02*
X119420239Y-102533168D01*
X119420239Y-102533168D02*
X119420239Y-102160635D01*
X119420239Y-102160635D02*
X119473458Y-101947759D01*
X119473458Y-101947759D02*
X119579896Y-101841321D01*
X119579896Y-101841321D02*
X119686334Y-101788102D01*
X119686334Y-101788102D02*
X119899210Y-101788102D01*
X119899210Y-101788102D02*
X120005648Y-101841321D01*
X120005648Y-101841321D02*
X120112086Y-101947759D01*
X120112086Y-101947759D02*
X120165305Y-102160635D01*
X120165305Y-102160635D02*
X120165305Y-102533168D01*
X120165305Y-102533168D02*
X120112086Y-102746044D01*
X120112086Y-102746044D02*
X120005648Y-102852483D01*
X120005648Y-102852483D02*
X119899210Y-102905702D01*
X119899210Y-102905702D02*
X119686334Y-102905702D01*
X121123248Y-102852483D02*
X121016810Y-102905702D01*
X121016810Y-102905702D02*
X120803934Y-102905702D01*
X120803934Y-102905702D02*
X120697496Y-102852483D01*
X120697496Y-102852483D02*
X120644277Y-102799263D01*
X120644277Y-102799263D02*
X120591058Y-102692825D01*
X120591058Y-102692825D02*
X120591058Y-102373511D01*
X120591058Y-102373511D02*
X120644277Y-102267073D01*
X120644277Y-102267073D02*
X120697496Y-102213854D01*
X120697496Y-102213854D02*
X120803934Y-102160635D01*
X120803934Y-102160635D02*
X121016810Y-102160635D01*
X121016810Y-102160635D02*
X121123248Y-102213854D01*
X121974753Y-102320292D02*
X122134410Y-102373511D01*
X122134410Y-102373511D02*
X122187629Y-102426730D01*
X122187629Y-102426730D02*
X122240848Y-102533168D01*
X122240848Y-102533168D02*
X122240848Y-102692825D01*
X122240848Y-102692825D02*
X122187629Y-102799263D01*
X122187629Y-102799263D02*
X122134410Y-102852483D01*
X122134410Y-102852483D02*
X122027972Y-102905702D01*
X122027972Y-102905702D02*
X121602220Y-102905702D01*
X121602220Y-102905702D02*
X121602220Y-101788102D01*
X121602220Y-101788102D02*
X121974753Y-101788102D01*
X121974753Y-101788102D02*
X122081191Y-101841321D01*
X122081191Y-101841321D02*
X122134410Y-101894540D01*
X122134410Y-101894540D02*
X122187629Y-102000978D01*
X122187629Y-102000978D02*
X122187629Y-102107416D01*
X122187629Y-102107416D02*
X122134410Y-102213854D01*
X122134410Y-102213854D02*
X122081191Y-102267073D01*
X122081191Y-102267073D02*
X121974753Y-102320292D01*
X121974753Y-102320292D02*
X121602220Y-102320292D01*
X122879477Y-102905702D02*
X122773039Y-102852483D01*
X122773039Y-102852483D02*
X122719820Y-102799263D01*
X122719820Y-102799263D02*
X122666601Y-102692825D01*
X122666601Y-102692825D02*
X122666601Y-102373511D01*
X122666601Y-102373511D02*
X122719820Y-102267073D01*
X122719820Y-102267073D02*
X122773039Y-102213854D01*
X122773039Y-102213854D02*
X122879477Y-102160635D01*
X122879477Y-102160635D02*
X123039134Y-102160635D01*
X123039134Y-102160635D02*
X123145572Y-102213854D01*
X123145572Y-102213854D02*
X123198791Y-102267073D01*
X123198791Y-102267073D02*
X123252010Y-102373511D01*
X123252010Y-102373511D02*
X123252010Y-102692825D01*
X123252010Y-102692825D02*
X123198791Y-102799263D01*
X123198791Y-102799263D02*
X123145572Y-102852483D01*
X123145572Y-102852483D02*
X123039134Y-102905702D01*
X123039134Y-102905702D02*
X122879477Y-102905702D01*
X123624544Y-102905702D02*
X124209953Y-102160635D01*
X123624544Y-102160635D02*
X124209953Y-102905702D01*
X124635706Y-102799263D02*
X124688925Y-102852483D01*
X124688925Y-102852483D02*
X124635706Y-102905702D01*
X124635706Y-102905702D02*
X124582487Y-102852483D01*
X124582487Y-102852483D02*
X124635706Y-102799263D01*
X124635706Y-102799263D02*
X124635706Y-102905702D01*
X125806524Y-102799263D02*
X125753305Y-102852483D01*
X125753305Y-102852483D02*
X125593648Y-102905702D01*
X125593648Y-102905702D02*
X125487210Y-102905702D01*
X125487210Y-102905702D02*
X125327553Y-102852483D01*
X125327553Y-102852483D02*
X125221115Y-102746044D01*
X125221115Y-102746044D02*
X125167896Y-102639606D01*
X125167896Y-102639606D02*
X125114677Y-102426730D01*
X125114677Y-102426730D02*
X125114677Y-102267073D01*
X125114677Y-102267073D02*
X125167896Y-102054197D01*
X125167896Y-102054197D02*
X125221115Y-101947759D01*
X125221115Y-101947759D02*
X125327553Y-101841321D01*
X125327553Y-101841321D02*
X125487210Y-101788102D01*
X125487210Y-101788102D02*
X125593648Y-101788102D01*
X125593648Y-101788102D02*
X125753305Y-101841321D01*
X125753305Y-101841321D02*
X125806524Y-101894540D01*
X126764467Y-102905702D02*
X126764467Y-102320292D01*
X126764467Y-102320292D02*
X126711248Y-102213854D01*
X126711248Y-102213854D02*
X126604810Y-102160635D01*
X126604810Y-102160635D02*
X126391934Y-102160635D01*
X126391934Y-102160635D02*
X126285496Y-102213854D01*
X126764467Y-102852483D02*
X126658029Y-102905702D01*
X126658029Y-102905702D02*
X126391934Y-102905702D01*
X126391934Y-102905702D02*
X126285496Y-102852483D01*
X126285496Y-102852483D02*
X126232277Y-102746044D01*
X126232277Y-102746044D02*
X126232277Y-102639606D01*
X126232277Y-102639606D02*
X126285496Y-102533168D01*
X126285496Y-102533168D02*
X126391934Y-102479949D01*
X126391934Y-102479949D02*
X126658029Y-102479949D01*
X126658029Y-102479949D02*
X126764467Y-102426730D01*
D12*
%TO.C,U$3*%
X139379125Y-96781897D02*
X140091293Y-96781897D01*
X139735209Y-97137981D02*
X139735209Y-96425813D01*
X140536397Y-96781897D02*
X141248565Y-96781897D01*
X140892481Y-97137981D02*
X140892481Y-96425813D01*
D15*
X137022484Y-96651303D02*
X136969072Y-96624597D01*
X136969072Y-96624597D02*
X136888953Y-96624597D01*
X136888953Y-96624597D02*
X136808834Y-96651303D01*
X136808834Y-96651303D02*
X136755421Y-96704716D01*
X136755421Y-96704716D02*
X136728715Y-96758128D01*
X136728715Y-96758128D02*
X136702009Y-96864953D01*
X136702009Y-96864953D02*
X136702009Y-96945072D01*
X136702009Y-96945072D02*
X136728715Y-97051897D01*
X136728715Y-97051897D02*
X136755421Y-97105310D01*
X136755421Y-97105310D02*
X136808834Y-97158723D01*
X136808834Y-97158723D02*
X136888953Y-97185429D01*
X136888953Y-97185429D02*
X136942365Y-97185429D01*
X136942365Y-97185429D02*
X137022484Y-97158723D01*
X137022484Y-97158723D02*
X137049190Y-97132016D01*
X137049190Y-97132016D02*
X137049190Y-96945072D01*
X137049190Y-96945072D02*
X136942365Y-96945072D01*
X137289547Y-97185429D02*
X137289547Y-96624597D01*
X137289547Y-96624597D02*
X137610022Y-97185429D01*
X137610022Y-97185429D02*
X137610022Y-96624597D01*
X137877085Y-97185429D02*
X137877085Y-96624597D01*
X137877085Y-96624597D02*
X138010616Y-96624597D01*
X138010616Y-96624597D02*
X138090735Y-96651303D01*
X138090735Y-96651303D02*
X138144148Y-96704716D01*
X138144148Y-96704716D02*
X138170854Y-96758128D01*
X138170854Y-96758128D02*
X138197560Y-96864953D01*
X138197560Y-96864953D02*
X138197560Y-96945072D01*
X138197560Y-96945072D02*
X138170854Y-97051897D01*
X138170854Y-97051897D02*
X138144148Y-97105310D01*
X138144148Y-97105310D02*
X138090735Y-97158723D01*
X138090735Y-97158723D02*
X138010616Y-97185429D01*
X138010616Y-97185429D02*
X137877085Y-97185429D01*
D12*
%TO.C,U$4*%
X155889125Y-96781897D02*
X156601293Y-96781897D01*
X156245209Y-97137981D02*
X156245209Y-96425813D01*
X157046397Y-96781897D02*
X157758565Y-96781897D01*
X157402481Y-97137981D02*
X157402481Y-96425813D01*
D15*
X153532484Y-96651303D02*
X153479072Y-96624597D01*
X153479072Y-96624597D02*
X153398953Y-96624597D01*
X153398953Y-96624597D02*
X153318834Y-96651303D01*
X153318834Y-96651303D02*
X153265421Y-96704716D01*
X153265421Y-96704716D02*
X153238715Y-96758128D01*
X153238715Y-96758128D02*
X153212009Y-96864953D01*
X153212009Y-96864953D02*
X153212009Y-96945072D01*
X153212009Y-96945072D02*
X153238715Y-97051897D01*
X153238715Y-97051897D02*
X153265421Y-97105310D01*
X153265421Y-97105310D02*
X153318834Y-97158723D01*
X153318834Y-97158723D02*
X153398953Y-97185429D01*
X153398953Y-97185429D02*
X153452365Y-97185429D01*
X153452365Y-97185429D02*
X153532484Y-97158723D01*
X153532484Y-97158723D02*
X153559190Y-97132016D01*
X153559190Y-97132016D02*
X153559190Y-96945072D01*
X153559190Y-96945072D02*
X153452365Y-96945072D01*
X153799547Y-97185429D02*
X153799547Y-96624597D01*
X153799547Y-96624597D02*
X154120022Y-97185429D01*
X154120022Y-97185429D02*
X154120022Y-96624597D01*
X154387085Y-97185429D02*
X154387085Y-96624597D01*
X154387085Y-96624597D02*
X154520616Y-96624597D01*
X154520616Y-96624597D02*
X154600735Y-96651303D01*
X154600735Y-96651303D02*
X154654148Y-96704716D01*
X154654148Y-96704716D02*
X154680854Y-96758128D01*
X154680854Y-96758128D02*
X154707560Y-96864953D01*
X154707560Y-96864953D02*
X154707560Y-96945072D01*
X154707560Y-96945072D02*
X154680854Y-97051897D01*
X154680854Y-97051897D02*
X154654148Y-97105310D01*
X154654148Y-97105310D02*
X154600735Y-97158723D01*
X154600735Y-97158723D02*
X154520616Y-97185429D01*
X154520616Y-97185429D02*
X154387085Y-97185429D01*
D12*
%TO.C,U$12*%
X175828125Y-103360981D02*
X175828125Y-102426261D01*
X176362251Y-103360981D02*
X175961656Y-102826855D01*
X176362251Y-102426261D02*
X175828125Y-102960387D01*
X173243614Y-103093918D02*
X173688719Y-103093918D01*
X173154593Y-103360981D02*
X173466167Y-102426261D01*
X173466167Y-102426261D02*
X173777740Y-103360981D01*
%TO.C,U$2*%
X122869125Y-96781897D02*
X123581293Y-96781897D01*
X123225209Y-97137981D02*
X123225209Y-96425813D01*
X124026397Y-96781897D02*
X124738565Y-96781897D01*
X124382481Y-97137981D02*
X124382481Y-96425813D01*
D15*
X120512484Y-96651303D02*
X120459072Y-96624597D01*
X120459072Y-96624597D02*
X120378953Y-96624597D01*
X120378953Y-96624597D02*
X120298834Y-96651303D01*
X120298834Y-96651303D02*
X120245421Y-96704716D01*
X120245421Y-96704716D02*
X120218715Y-96758128D01*
X120218715Y-96758128D02*
X120192009Y-96864953D01*
X120192009Y-96864953D02*
X120192009Y-96945072D01*
X120192009Y-96945072D02*
X120218715Y-97051897D01*
X120218715Y-97051897D02*
X120245421Y-97105310D01*
X120245421Y-97105310D02*
X120298834Y-97158723D01*
X120298834Y-97158723D02*
X120378953Y-97185429D01*
X120378953Y-97185429D02*
X120432365Y-97185429D01*
X120432365Y-97185429D02*
X120512484Y-97158723D01*
X120512484Y-97158723D02*
X120539190Y-97132016D01*
X120539190Y-97132016D02*
X120539190Y-96945072D01*
X120539190Y-96945072D02*
X120432365Y-96945072D01*
X120779547Y-97185429D02*
X120779547Y-96624597D01*
X120779547Y-96624597D02*
X121100022Y-97185429D01*
X121100022Y-97185429D02*
X121100022Y-96624597D01*
X121367085Y-97185429D02*
X121367085Y-96624597D01*
X121367085Y-96624597D02*
X121500616Y-96624597D01*
X121500616Y-96624597D02*
X121580735Y-96651303D01*
X121580735Y-96651303D02*
X121634148Y-96704716D01*
X121634148Y-96704716D02*
X121660854Y-96758128D01*
X121660854Y-96758128D02*
X121687560Y-96864953D01*
X121687560Y-96864953D02*
X121687560Y-96945072D01*
X121687560Y-96945072D02*
X121660854Y-97051897D01*
X121660854Y-97051897D02*
X121634148Y-97105310D01*
X121634148Y-97105310D02*
X121580735Y-97158723D01*
X121580735Y-97158723D02*
X121500616Y-97185429D01*
X121500616Y-97185429D02*
X121367085Y-97185429D01*
D12*
%TO.C,U$5*%
X173415125Y-96781897D02*
X174127293Y-96781897D01*
X173771209Y-97137981D02*
X173771209Y-96425813D01*
X174572397Y-96781897D02*
X175284565Y-96781897D01*
X174928481Y-97137981D02*
X174928481Y-96425813D01*
D15*
X171058484Y-96651303D02*
X171005072Y-96624597D01*
X171005072Y-96624597D02*
X170924953Y-96624597D01*
X170924953Y-96624597D02*
X170844834Y-96651303D01*
X170844834Y-96651303D02*
X170791421Y-96704716D01*
X170791421Y-96704716D02*
X170764715Y-96758128D01*
X170764715Y-96758128D02*
X170738009Y-96864953D01*
X170738009Y-96864953D02*
X170738009Y-96945072D01*
X170738009Y-96945072D02*
X170764715Y-97051897D01*
X170764715Y-97051897D02*
X170791421Y-97105310D01*
X170791421Y-97105310D02*
X170844834Y-97158723D01*
X170844834Y-97158723D02*
X170924953Y-97185429D01*
X170924953Y-97185429D02*
X170978365Y-97185429D01*
X170978365Y-97185429D02*
X171058484Y-97158723D01*
X171058484Y-97158723D02*
X171085190Y-97132016D01*
X171085190Y-97132016D02*
X171085190Y-96945072D01*
X171085190Y-96945072D02*
X170978365Y-96945072D01*
X171325547Y-97185429D02*
X171325547Y-96624597D01*
X171325547Y-96624597D02*
X171646022Y-97185429D01*
X171646022Y-97185429D02*
X171646022Y-96624597D01*
X171913085Y-97185429D02*
X171913085Y-96624597D01*
X171913085Y-96624597D02*
X172046616Y-96624597D01*
X172046616Y-96624597D02*
X172126735Y-96651303D01*
X172126735Y-96651303D02*
X172180148Y-96704716D01*
X172180148Y-96704716D02*
X172206854Y-96758128D01*
X172206854Y-96758128D02*
X172233560Y-96864953D01*
X172233560Y-96864953D02*
X172233560Y-96945072D01*
X172233560Y-96945072D02*
X172206854Y-97051897D01*
X172206854Y-97051897D02*
X172180148Y-97105310D01*
X172180148Y-97105310D02*
X172126735Y-97158723D01*
X172126735Y-97158723D02*
X172046616Y-97185429D01*
X172046616Y-97185429D02*
X171913085Y-97185429D01*
D12*
%TO.C,U$6*%
X173415125Y-108973897D02*
X174127293Y-108973897D01*
X173771209Y-109329981D02*
X173771209Y-108617813D01*
X174572397Y-108973897D02*
X175284565Y-108973897D01*
X174928481Y-109329981D02*
X174928481Y-108617813D01*
D15*
X171058484Y-108843303D02*
X171005072Y-108816597D01*
X171005072Y-108816597D02*
X170924953Y-108816597D01*
X170924953Y-108816597D02*
X170844834Y-108843303D01*
X170844834Y-108843303D02*
X170791421Y-108896716D01*
X170791421Y-108896716D02*
X170764715Y-108950128D01*
X170764715Y-108950128D02*
X170738009Y-109056953D01*
X170738009Y-109056953D02*
X170738009Y-109137072D01*
X170738009Y-109137072D02*
X170764715Y-109243897D01*
X170764715Y-109243897D02*
X170791421Y-109297310D01*
X170791421Y-109297310D02*
X170844834Y-109350723D01*
X170844834Y-109350723D02*
X170924953Y-109377429D01*
X170924953Y-109377429D02*
X170978365Y-109377429D01*
X170978365Y-109377429D02*
X171058484Y-109350723D01*
X171058484Y-109350723D02*
X171085190Y-109324016D01*
X171085190Y-109324016D02*
X171085190Y-109137072D01*
X171085190Y-109137072D02*
X170978365Y-109137072D01*
X171325547Y-109377429D02*
X171325547Y-108816597D01*
X171325547Y-108816597D02*
X171646022Y-109377429D01*
X171646022Y-109377429D02*
X171646022Y-108816597D01*
X171913085Y-109377429D02*
X171913085Y-108816597D01*
X171913085Y-108816597D02*
X172046616Y-108816597D01*
X172046616Y-108816597D02*
X172126735Y-108843303D01*
X172126735Y-108843303D02*
X172180148Y-108896716D01*
X172180148Y-108896716D02*
X172206854Y-108950128D01*
X172206854Y-108950128D02*
X172233560Y-109056953D01*
X172233560Y-109056953D02*
X172233560Y-109137072D01*
X172233560Y-109137072D02*
X172206854Y-109243897D01*
X172206854Y-109243897D02*
X172180148Y-109297310D01*
X172180148Y-109297310D02*
X172126735Y-109350723D01*
X172126735Y-109350723D02*
X172046616Y-109377429D01*
X172046616Y-109377429D02*
X171913085Y-109377429D01*
D17*
%TO.C,U$3*%
X136182100Y-96748600D02*
X136817100Y-96113600D01*
X136182100Y-99288600D02*
X136182100Y-96748600D01*
X136182100Y-99288600D02*
X136817100Y-99923600D01*
X136817100Y-96113600D02*
X145707100Y-96113600D01*
X136817100Y-99923600D02*
X138087100Y-99923600D01*
X138722100Y-99288600D02*
X138087100Y-99923600D01*
X138722100Y-99288600D02*
X138722100Y-97383600D01*
X138722100Y-99288600D02*
X139357100Y-99923600D01*
X139357100Y-99923600D02*
X140627100Y-99923600D01*
X141262100Y-99288600D02*
X140627100Y-99923600D01*
X141262100Y-99288600D02*
X141262100Y-97383600D01*
X141262100Y-99288600D02*
X141897100Y-99923600D01*
X141897100Y-99923600D02*
X143167100Y-99923600D01*
X143802100Y-99288600D02*
X143167100Y-99923600D01*
X143802100Y-99288600D02*
X143802100Y-97383600D01*
X143802100Y-99288600D02*
X144437100Y-99923600D01*
X144437100Y-99923600D02*
X145707100Y-99923600D01*
X146342100Y-96748600D02*
X145707100Y-96113600D01*
X146342100Y-99288600D02*
X145707100Y-99923600D01*
X146342100Y-99288600D02*
X146342100Y-96748600D01*
%TO.C,U$4*%
X152692100Y-96748600D02*
X153327100Y-96113600D01*
X152692100Y-99288600D02*
X152692100Y-96748600D01*
X152692100Y-99288600D02*
X153327100Y-99923600D01*
X153327100Y-96113600D02*
X162217100Y-96113600D01*
X153327100Y-99923600D02*
X154597100Y-99923600D01*
X155232100Y-99288600D02*
X154597100Y-99923600D01*
X155232100Y-99288600D02*
X155232100Y-97383600D01*
X155232100Y-99288600D02*
X155867100Y-99923600D01*
X155867100Y-99923600D02*
X157137100Y-99923600D01*
X157772100Y-99288600D02*
X157137100Y-99923600D01*
X157772100Y-99288600D02*
X157772100Y-97383600D01*
X157772100Y-99288600D02*
X158407100Y-99923600D01*
X158407100Y-99923600D02*
X159677100Y-99923600D01*
X160312100Y-99288600D02*
X159677100Y-99923600D01*
X160312100Y-99288600D02*
X160312100Y-97383600D01*
X160312100Y-99288600D02*
X160947100Y-99923600D01*
X160947100Y-99923600D02*
X162217100Y-99923600D01*
X162852100Y-96748600D02*
X162217100Y-96113600D01*
X162852100Y-99288600D02*
X162217100Y-99923600D01*
X162852100Y-99288600D02*
X162852100Y-96748600D01*
%TO.C,U$12*%
X177076100Y-102971600D02*
X177076100Y-102336600D01*
X177076100Y-102971600D02*
X177076100Y-105511600D01*
X177076100Y-105511600D02*
X177076100Y-106146600D01*
X177076100Y-102971600D02*
G75*
G03*
X177076100Y-105511600I-2238783J-1270000D01*
G01*
%TO.C,U$2*%
X119672100Y-96748600D02*
X120307100Y-96113600D01*
X119672100Y-99288600D02*
X119672100Y-96748600D01*
X119672100Y-99288600D02*
X120307100Y-99923600D01*
X120307100Y-96113600D02*
X129197100Y-96113600D01*
X120307100Y-99923600D02*
X121577100Y-99923600D01*
X122212100Y-99288600D02*
X121577100Y-99923600D01*
X122212100Y-99288600D02*
X122212100Y-97383600D01*
X122212100Y-99288600D02*
X122847100Y-99923600D01*
X122847100Y-99923600D02*
X124117100Y-99923600D01*
X124752100Y-99288600D02*
X124117100Y-99923600D01*
X124752100Y-99288600D02*
X124752100Y-97383600D01*
X124752100Y-99288600D02*
X125387100Y-99923600D01*
X125387100Y-99923600D02*
X126657100Y-99923600D01*
X127292100Y-99288600D02*
X126657100Y-99923600D01*
X127292100Y-99288600D02*
X127292100Y-97383600D01*
X127292100Y-99288600D02*
X127927100Y-99923600D01*
X127927100Y-99923600D02*
X129197100Y-99923600D01*
X129832100Y-96748600D02*
X129197100Y-96113600D01*
X129832100Y-99288600D02*
X129197100Y-99923600D01*
X129832100Y-99288600D02*
X129832100Y-96748600D01*
%TO.C,U$5*%
X170218100Y-96748600D02*
X170853100Y-96113600D01*
X170218100Y-99288600D02*
X170218100Y-96748600D01*
X170218100Y-99288600D02*
X170853100Y-99923600D01*
X170853100Y-96113600D02*
X177203100Y-96113600D01*
X170853100Y-99923600D02*
X172123100Y-99923600D01*
X172758100Y-99288600D02*
X172123100Y-99923600D01*
X172758100Y-99288600D02*
X172758100Y-97383600D01*
X172758100Y-99288600D02*
X173393100Y-99923600D01*
X173393100Y-99923600D02*
X174663100Y-99923600D01*
X175298100Y-99288600D02*
X174663100Y-99923600D01*
X175298100Y-99288600D02*
X175298100Y-97383600D01*
X175298100Y-99288600D02*
X175933100Y-99923600D01*
X175933100Y-99923600D02*
X177203100Y-99923600D01*
X177838100Y-96748600D02*
X177203100Y-96113600D01*
X177838100Y-96748600D02*
X177838100Y-99288600D01*
X177838100Y-99288600D02*
X177203100Y-99923600D01*
%TO.C,U$7*%
X128054100Y-104495600D02*
X128689100Y-103860600D01*
X128054100Y-105765600D02*
X128054100Y-104495600D01*
X128054100Y-105765600D02*
X128689100Y-106400600D01*
X128689100Y-103860600D02*
X129959100Y-103860600D01*
X128689100Y-106400600D02*
X129959100Y-106400600D01*
X129959100Y-103860600D02*
X130594100Y-104495600D01*
X130594100Y-104495600D02*
X131229100Y-103860600D01*
X130594100Y-105765600D02*
X129959100Y-106400600D01*
X130594100Y-105765600D02*
X130594100Y-104495600D01*
X130594100Y-105765600D02*
X130594100Y-104495600D01*
X130594100Y-105765600D02*
X131229100Y-106400600D01*
X131229100Y-103860600D02*
X132499100Y-103860600D01*
X131229100Y-106400600D02*
X132499100Y-106400600D01*
X132499100Y-103860600D02*
X133134100Y-104495600D01*
X133134100Y-104495600D02*
X133769100Y-103860600D01*
X133134100Y-105765600D02*
X132499100Y-106400600D01*
X133134100Y-105765600D02*
X133134100Y-104495600D01*
X133134100Y-105765600D02*
X133134100Y-104495600D01*
X133134100Y-105765600D02*
X133769100Y-106400600D01*
X133769100Y-103860600D02*
X135039100Y-103860600D01*
X133769100Y-106400600D02*
X135039100Y-106400600D01*
X135039100Y-103860600D02*
X135674100Y-104495600D01*
X135674100Y-104495600D02*
X136309100Y-103860600D01*
X135674100Y-105765600D02*
X135039100Y-106400600D01*
X135674100Y-105765600D02*
X135674100Y-104495600D01*
X135674100Y-105765600D02*
X135674100Y-104495600D01*
X135674100Y-105765600D02*
X135674100Y-104495600D01*
X135674100Y-105765600D02*
X136309100Y-106400600D01*
X136309100Y-103860600D02*
X137579100Y-103860600D01*
X136309100Y-106400600D02*
X137579100Y-106400600D01*
X137579100Y-103860600D02*
X138214100Y-104495600D01*
X138214100Y-104495600D02*
X138849100Y-103860600D01*
X138214100Y-105765600D02*
X137579100Y-106400600D01*
X138214100Y-105765600D02*
X138214100Y-104495600D01*
X138214100Y-105765600D02*
X138849100Y-106400600D01*
X138849100Y-103860600D02*
X140119100Y-103860600D01*
X138849100Y-106400600D02*
X140119100Y-106400600D01*
X140119100Y-103860600D02*
X140754100Y-104495600D01*
X140754100Y-104495600D02*
X141389100Y-103860600D01*
X140754100Y-105765600D02*
X140119100Y-106400600D01*
X140754100Y-105765600D02*
X140754100Y-104495600D01*
X140754100Y-105765600D02*
X141389100Y-106400600D01*
X141389100Y-103860600D02*
X142659100Y-103860600D01*
X141389100Y-106400600D02*
X142659100Y-106400600D01*
X142659100Y-103860600D02*
X143294100Y-104495600D01*
X143294100Y-105765600D02*
X142659100Y-106400600D01*
X143294100Y-105765600D02*
X143294100Y-104495600D01*
%TO.C,U$8*%
X155740100Y-106908600D02*
X156375100Y-106273600D01*
X155740100Y-108178600D02*
X155740100Y-106908600D01*
X155740100Y-108178600D02*
X156375100Y-108813600D01*
X156375100Y-106273600D02*
X157645100Y-106273600D01*
X156375100Y-108813600D02*
X157645100Y-108813600D01*
X157645100Y-106273600D02*
X158280100Y-106908600D01*
X158280100Y-106908600D02*
X158915100Y-106273600D01*
X158280100Y-108178600D02*
X157645100Y-108813600D01*
X158280100Y-108178600D02*
X158280100Y-106908600D01*
X158280100Y-108178600D02*
X158280100Y-106908600D01*
X158280100Y-108178600D02*
X158915100Y-108813600D01*
X158915100Y-106273600D02*
X160185100Y-106273600D01*
X158915100Y-108813600D02*
X160185100Y-108813600D01*
X160185100Y-106273600D02*
X160820100Y-106908600D01*
X160820100Y-106908600D02*
X161455100Y-106273600D01*
X160820100Y-108178600D02*
X160185100Y-108813600D01*
X160820100Y-108178600D02*
X160820100Y-106908600D01*
X160820100Y-108178600D02*
X160820100Y-106908600D01*
X160820100Y-108178600D02*
X161455100Y-108813600D01*
X161455100Y-106273600D02*
X162725100Y-106273600D01*
X161455100Y-108813600D02*
X162725100Y-108813600D01*
X162725100Y-106273600D02*
X163360100Y-106908600D01*
X163360100Y-108178600D02*
X162725100Y-108813600D01*
X163360100Y-108178600D02*
X163360100Y-106908600D01*
%TO.C,U$9*%
X155740100Y-109956600D02*
X156375100Y-109321600D01*
X155740100Y-111226600D02*
X155740100Y-109956600D01*
X155740100Y-111226600D02*
X156375100Y-111861600D01*
X156375100Y-109321600D02*
X157645100Y-109321600D01*
X156375100Y-111861600D02*
X157645100Y-111861600D01*
X157645100Y-109321600D02*
X158280100Y-109956600D01*
X158280100Y-109956600D02*
X158915100Y-109321600D01*
X158280100Y-111226600D02*
X157645100Y-111861600D01*
X158280100Y-111226600D02*
X158280100Y-109956600D01*
X158280100Y-111226600D02*
X158280100Y-109956600D01*
X158280100Y-111226600D02*
X158915100Y-111861600D01*
X158915100Y-109321600D02*
X160185100Y-109321600D01*
X158915100Y-111861600D02*
X160185100Y-111861600D01*
X160185100Y-109321600D02*
X160820100Y-109956600D01*
X160820100Y-109956600D02*
X161455100Y-109321600D01*
X160820100Y-111226600D02*
X160185100Y-111861600D01*
X160820100Y-111226600D02*
X160820100Y-109956600D01*
X160820100Y-111226600D02*
X160820100Y-109956600D01*
X160820100Y-111226600D02*
X161455100Y-111861600D01*
X161455100Y-109321600D02*
X162725100Y-109321600D01*
X161455100Y-111861600D02*
X162725100Y-111861600D01*
X162725100Y-109321600D02*
X163360100Y-109956600D01*
X163360100Y-111226600D02*
X162725100Y-111861600D01*
X163360100Y-111226600D02*
X163360100Y-109956600D01*
%TO.C,U$6*%
X170218100Y-108940600D02*
X170853100Y-108305600D01*
X170218100Y-111480600D02*
X170218100Y-108940600D01*
X170218100Y-111480600D02*
X170853100Y-112115600D01*
X170853100Y-108305600D02*
X177203100Y-108305600D01*
X170853100Y-112115600D02*
X172123100Y-112115600D01*
X172758100Y-111480600D02*
X172123100Y-112115600D01*
X172758100Y-111480600D02*
X172758100Y-109575600D01*
X172758100Y-111480600D02*
X173393100Y-112115600D01*
X173393100Y-112115600D02*
X174663100Y-112115600D01*
X175298100Y-111480600D02*
X174663100Y-112115600D01*
X175298100Y-111480600D02*
X175298100Y-109575600D01*
X175298100Y-111480600D02*
X175933100Y-112115600D01*
X175933100Y-112115600D02*
X177203100Y-112115600D01*
X177838100Y-108940600D02*
X177203100Y-108305600D01*
X177838100Y-108940600D02*
X177838100Y-111480600D01*
X177838100Y-111480600D02*
X177203100Y-112115600D01*
%TD*%
M02*
