%TF.GenerationSoftware,KiCad,Pcbnew,7.0.5*%
%TF.CreationDate,2023-09-07T09:14:09-04:00*%
%TF.ProjectId,NB1,4e42312e-6b69-4636-9164-5f7063625858,rev?*%
%TF.SameCoordinates,Original*%
%TF.FileFunction,Soldermask,Bot*%
%TF.FilePolarity,Negative*%
%FSLAX46Y46*%
G04 Gerber Fmt 4.6, Leading zero omitted, Abs format (unit mm)*
G04 Created by KiCad (PCBNEW 7.0.5) date 2023-09-07 09:14:09*
%MOMM*%
%LPD*%
G01*
G04 APERTURE LIST*
G04 Aperture macros list*
%AMFreePoly0*
4,1,17,0.324495,0.719901,0.719901,0.324495,0.738500,0.279594,0.738500,-0.279594,0.719901,-0.324495,0.324495,-0.719901,0.279594,-0.738500,-0.279594,-0.738500,-0.324495,-0.719901,-0.719901,-0.324495,-0.738500,-0.279594,-0.738500,0.279594,-0.719901,0.324495,-0.324495,0.719901,-0.279594,0.738500,0.279594,0.738500,0.324495,0.719901,0.324495,0.719901,$1*%
G04 Aperture macros list end*
%ADD10FreePoly0,0.000000*%
%ADD11C,1.327000*%
%ADD12O,3.127000X1.627000*%
G04 APERTURE END LIST*
D10*
%TO.C,U$3*%
X137452100Y-98653600D03*
X139992100Y-98653600D03*
X142532100Y-98653600D03*
X145072100Y-98653600D03*
%TD*%
%TO.C,U$4*%
X153962100Y-98653600D03*
X156502100Y-98653600D03*
X159042100Y-98653600D03*
X161582100Y-98653600D03*
%TD*%
D11*
%TO.C,U$12*%
X173520100Y-104241600D03*
X176060100Y-104241600D03*
%TD*%
D10*
%TO.C,U$2*%
X120942100Y-98653600D03*
X123482100Y-98653600D03*
X126022100Y-98653600D03*
X128562100Y-98653600D03*
%TD*%
%TO.C,U$5*%
X171488100Y-98653600D03*
X174028100Y-98653600D03*
X176568100Y-98653600D03*
%TD*%
%TO.C,U$7*%
X129324100Y-105130600D03*
X131864100Y-105130600D03*
X134404100Y-105130600D03*
X136944100Y-105130600D03*
X139484100Y-105130600D03*
X142024100Y-105130600D03*
%TD*%
%TO.C,U$8*%
X157010100Y-107543600D03*
X159550100Y-107543600D03*
X162090100Y-107543600D03*
%TD*%
D12*
%TO.C,U$10*%
X142850100Y-113131600D03*
X150850100Y-113131600D03*
%TD*%
%TO.C,U$11*%
X142850100Y-109829600D03*
X150850100Y-109829600D03*
%TD*%
D10*
%TO.C,U$9*%
X157010100Y-110591600D03*
X159550100Y-110591600D03*
X162090100Y-110591600D03*
%TD*%
D12*
%TO.C,U$13*%
X154406100Y-102463600D03*
X146406100Y-102463600D03*
%TD*%
D10*
%TO.C,U$6*%
X171488100Y-110845600D03*
X174028100Y-110845600D03*
X176568100Y-110845600D03*
%TD*%
D12*
%TO.C,U$1*%
X160122100Y-102971600D03*
X168122100Y-102971600D03*
%TD*%
M02*
