%TF.GenerationSoftware,KiCad,Pcbnew,7.0.5*%
%TF.CreationDate,2023-09-07T09:14:09-04:00*%
%TF.ProjectId,NB1,4e42312e-6b69-4636-9164-5f7063625858,rev?*%
%TF.SameCoordinates,Original*%
%TF.FileFunction,Profile,NP*%
%FSLAX46Y46*%
G04 Gerber Fmt 4.6, Leading zero omitted, Abs format (unit mm)*
G04 Created by KiCad (PCBNEW 7.0.5) date 2023-09-07 09:14:09*
%MOMM*%
%LPD*%
G01*
G04 APERTURE LIST*
%TA.AperFunction,Profile*%
%ADD10C,0.050000*%
%TD*%
G04 APERTURE END LIST*
D10*
X124980085Y-107285652D02*
G75*
G03*
X124980085Y-106015652I0J635000D01*
G01*
X121170085Y-111095652D02*
G75*
G03*
X121170085Y-112365652I0J-635000D01*
G01*
X121170085Y-106015652D02*
X124980085Y-106015652D01*
X121170085Y-111095652D02*
X124980085Y-111095652D01*
X124980085Y-112365652D02*
X121170085Y-112365652D01*
X121170085Y-106015652D02*
G75*
G03*
X121170085Y-107285652I0J-635000D01*
G01*
X124980085Y-107285652D02*
X121170085Y-107285652D01*
X124980085Y-112365652D02*
G75*
G03*
X124980085Y-111095652I0J635000D01*
G01*
X179108100Y-96621600D02*
X178092100Y-95605600D01*
X164884100Y-96621600D02*
X163868100Y-95605600D01*
X164884100Y-113385600D02*
X163868100Y-114401600D01*
X118910100Y-95605600D02*
X117894100Y-96621600D01*
X135928100Y-114401600D02*
X163868100Y-114401600D01*
X130848100Y-96621600D02*
X134912100Y-96621600D01*
X130848100Y-113385600D02*
X134912100Y-113385600D01*
X129832100Y-95605600D02*
X118910100Y-95605600D01*
X134912100Y-96621600D02*
X135928100Y-95605600D01*
X169964100Y-114401600D02*
X178092100Y-114401600D01*
X168948100Y-113385600D02*
X169964100Y-114401600D01*
X179108100Y-112115600D02*
X179108100Y-96621600D01*
X134912100Y-113385600D02*
X135928100Y-114401600D01*
X129832100Y-95605600D02*
X130848100Y-96621600D01*
X130848100Y-113385600D02*
X129832100Y-114401600D01*
X164884100Y-113385600D02*
X168948100Y-113385600D01*
X163868100Y-95605600D02*
X135928100Y-95605600D01*
X178092100Y-114401600D02*
X179108100Y-112115600D01*
X178092100Y-95605600D02*
X169964100Y-95605600D01*
X117894100Y-113385600D02*
X118910100Y-114401600D01*
X118910100Y-114401600D02*
X129832100Y-114401600D01*
X164884100Y-96621600D02*
X168948100Y-96621600D01*
X168948100Y-96621600D02*
X169964100Y-95605600D01*
X117894100Y-96621600D02*
X117894100Y-113385600D01*
M02*
