M48
; DRILL file {KiCad 7.0.5} date Wed Sep  6 09:40:42 2023
; FORMAT={-:-/ absolute / inch / decimal}
; #@! TF.CreationDate,2023-09-06T09:40:42-04:00
; #@! TF.GenerationSoftware,Kicad,Pcbnew,7.0.5
; #@! TF.FileFunction,Plated,1,2,PTH
FMAT,2
INCH
; #@! TA.AperFunction,Plated,PTH,ViaDrill
T1C0.0138
; #@! TA.AperFunction,Plated,PTH,ComponentDrill
T2C0.0315
; #@! TA.AperFunction,Plated,PTH,ComponentDrill
T3C0.0354
; #@! TA.AperFunction,Plated,PTH,ComponentDrill
T4C0.0394
%
G90
G05
T1
X5.5355Y-3.9671
T2
X6.8315Y-4.104
X6.9315Y-4.104
T3
X4.7615Y-3.884
X4.8615Y-3.884
X4.9615Y-3.884
X5.0615Y-3.884
X5.0915Y-4.139
X5.1915Y-4.139
X5.2915Y-4.139
X5.3915Y-4.139
X5.4115Y-3.884
X5.4915Y-4.139
X5.5115Y-3.884
X5.5915Y-4.139
X5.6115Y-3.884
X5.7115Y-3.884
X6.0615Y-3.884
X6.1615Y-3.884
X6.1815Y-4.234
X6.1815Y-4.354
X6.2615Y-3.884
X6.2815Y-4.234
X6.2815Y-4.354
X6.3615Y-3.884
X6.3815Y-4.234
X6.3815Y-4.354
X6.7515Y-3.884
X6.7515Y-4.364
X6.8515Y-3.884
X6.8515Y-4.364
X6.9515Y-3.884
X6.9515Y-4.364
T4
X5.624Y-4.324
X5.624Y-4.454
X5.764Y-4.034
X5.939Y-4.324
X5.939Y-4.454
X6.079Y-4.034
X6.304Y-4.054
X6.619Y-4.054
T0
M30
